<svg width="1080" height="1080" viewBox="0 0 1080 1080" fill="none" xmlns="http://www.w3.org/2000/svg">
<rect x="2" y="2" width="1076" height="1076" rx="130" fill="url(#paint0_linear_1170_277)"/>
<path d="M2 132C2 60.203 60.203 2 132 2H948C1019.8 2 1078 60.203 1078 132V286H2V132Z" fill="url(#paint1_linear_1170_277)"/>
<rect x="248" y="89" width="584" height="110" rx="55" fill="#FFBBBB"/>
<path fill-rule="evenodd" clip-rule="evenodd" d="M276.35 442.7C247.75 467.833 232.583 503.583 230.85 549.95H339.4C340.7 535.217 345.25 522.867 353.05 512.9C361.283 502.933 373.633 497.95 390.1 497.95C405.267 497.95 417.183 502.283 425.85 510.95C434.517 519.617 438.85 531.75 438.85 547.35C438.85 566.85 431.917 580.5 418.05 588.3C404.617 595.667 386.85 599.35 364.75 599.35H343.95V689.7H364.75C393.783 689.7 414.8 694.467 427.8 704C441.233 713.1 447.95 728.05 447.95 748.85C447.95 764.883 443.183 777.883 433.65 787.85C424.55 797.383 411.55 802.15 394.65 802.15C374.717 802.15 359.55 796.733 349.15 785.9C338.75 774.633 333.333 759.467 332.9 740.4H225C226.733 791.967 242.983 830.533 273.75 856.1C304.95 881.667 346.55 894.45 398.55 894.45C431.05 894.45 459 888.6 482.4 876.9C506.233 865.2 524.217 849.167 536.35 828.8C548.917 808 555.2 784.167 555.2 757.3C555.2 727.4 548.05 702.917 533.75 683.85C519.45 664.783 499.95 651.133 475.25 642.9V640.3C494.317 633.8 511 621.667 525.3 603.9C539.6 585.7 546.75 562.3 546.75 533.7C546.75 509.433 540.683 487.55 528.55 468.05C516.85 448.55 499.3 433.167 475.9 421.9C452.933 410.633 425.2 405 392.7 405C343.733 405 304.95 417.567 276.35 442.7ZM651.551 416.5V519.85H715.901V891H831.601V416.5H651.551Z" fill="url(#paint2_linear_1170_277)"/>
<defs>
<linearGradient id="paint0_linear_1170_277" x1="924.5" y1="35.5" x2="203.5" y2="999" gradientUnits="userSpaceOnUse">
<stop stop-color="#ECECEC"/>
<stop offset="1" stop-color="#DFDFDF"/>
</linearGradient>
<linearGradient id="paint1_linear_1170_277" x1="677" y1="2.00003" x2="418" y2="255.5" gradientUnits="userSpaceOnUse">
<stop stop-color="#EB1D1D"/>
<stop offset="1" stop-color="#D30000"/>
</linearGradient>
<linearGradient id="paint2_linear_1170_277" x1="756.5" y1="176" x2="756.5" y2="1151" gradientUnits="userSpaceOnUse">
<stop stop-color="#6D6D6D"/>
<stop offset="1" stop-color="#3C3C3C"/>
</linearGradient>
</defs>
</svg>
