<svg width="1080" height="1080" viewBox="0 0 1080 1080" fill="none" xmlns="http://www.w3.org/2000/svg">
<path fill-rule="evenodd" clip-rule="evenodd" d="M731.995 653.808C731.998 653.617 732 653.425 732 653.233C732 590.696 568.584 540 367 540C165.416 540 2 590.696 2 653.233C2 653.425 2.00154 653.617 2.00462 653.808H2V964.768V965.343H2.0046C3.00197 1027.62 166.034 1078 367 1078C567.966 1078 730.998 1027.62 731.995 965.343H732V964.768V653.808H731.995Z" fill="#027600"/>
<path fill-rule="evenodd" clip-rule="evenodd" d="M731.995 384.808C731.998 384.617 732 384.425 732 384.233C732 321.696 568.584 271 367 271C165.416 271 2 321.696 2 384.233C2 384.425 2.00154 384.617 2.00462 384.808H2V695.768V696.343H2.0046C3.00197 758.615 166.034 809.001 367 809.001C567.966 809.001 730.998 758.615 731.995 696.343H732V695.768V384.808H731.995Z" fill="#038C00"/>
<path fill-rule="evenodd" clip-rule="evenodd" d="M731.995 115.808C731.998 115.617 732 115.425 732 115.233C732 52.6961 568.584 2 367 2C165.416 2 2 52.6961 2 115.233C2 115.425 2.00154 115.617 2.00462 115.808H2V426.768V427.343H2.0046C3.00197 489.615 166.034 540.001 367 540.001C567.966 540.001 730.998 489.615 731.995 427.343H732V426.768V115.808H731.995Z" fill="#05AB01"/>
<ellipse cx="367" cy="115.233" rx="365" ry="113.233" fill="#05C300"/>
<mask id="mask0_1148_184" style="mask-type:alpha" maskUnits="userSpaceOnUse" x="2" y="2" width="730" height="1077">
<path fill-rule="evenodd" clip-rule="evenodd" d="M732 115.233C732 115.425 731.998 115.617 731.995 115.808H732V384.233V384.808V426.768V427.343V653.233V653.808V695.768V696.343V964.768V965.343H731.995C730.998 1027.62 567.966 1078 367 1078C166.034 1078 3.00197 1027.62 2.0046 965.343H2V964.768V696.343V695.768V653.808V653.233V427.343V426.768V384.808V384.233V115.808H2.00462C2.00154 115.617 2 115.425 2 115.233C2 52.6961 165.416 2 367 2C568.584 2 732 52.6961 732 115.233Z" fill="#05AB01"/>
</mask>
<g mask="url(#mask0_1148_184)">
<g filter="url(#filter0_f_1148_184)">
<path fill-rule="evenodd" clip-rule="evenodd" d="M672.004 367C662.399 367 654.15 373.828 652.356 383.264L637.957 458.979C623.575 463.553 609.702 469.27 596.445 476.023L533.494 432.337C525.547 426.821 514.79 427.785 507.95 434.626L435.511 507.064C428.719 513.856 427.715 524.517 433.118 532.458L476.02 595.507C469.093 608.845 463.219 622.817 458.508 637.313L383.444 650.874C373.924 652.594 367 660.881 367 670.555V772.999C367 782.604 373.828 790.852 383.264 792.647L457.916 806.843C462.649 821.766 468.613 836.142 475.688 849.851L432.673 911.834C427.158 919.782 428.122 930.538 434.962 937.379L507.401 1009.82C514.192 1016.61 524.853 1017.61 532.794 1012.21L595.541 969.515C609.133 976.501 623.378 982.397 638.16 987.085L652.356 1061.74C654.15 1071.17 662.399 1078 672.004 1078H774.447C784.121 1078 792.409 1071.08 794.129 1061.56L807.689 986.492C822.153 981.791 836.095 975.933 849.405 969.026L912.869 1012.21C920.81 1017.61 931.471 1016.61 938.263 1009.82L1010.7 937.379C1017.54 930.538 1018.51 919.782 1012.99 911.834L969.019 848.473C975.753 835.241 981.456 821.397 986.02 807.045L1061.74 792.646C1071.17 790.852 1078 782.603 1078 772.999V670.555C1078 660.881 1071.08 652.594 1061.56 650.874L985.43 637.121C980.893 623.196 975.283 609.756 968.698 596.898L1012.55 532.458C1017.95 524.517 1016.94 513.856 1010.15 507.064L937.714 434.626C930.873 427.785 920.117 426.821 912.169 432.337L848.513 476.513C835.531 469.837 821.954 464.156 807.881 459.571L794.129 383.444C792.409 373.924 784.121 367 774.447 367H672.004Z" fill="black" fill-opacity="0.33"/>
</g>
</g>
<path fill-rule="evenodd" clip-rule="evenodd" d="M672.004 310C662.399 310 654.15 316.828 652.356 326.264L637.957 401.979C623.575 406.553 609.702 412.27 596.445 419.023L533.494 375.337C525.547 369.821 514.79 370.785 507.95 377.626L435.511 450.064C428.719 456.856 427.715 467.517 433.118 475.458L476.02 538.507C469.093 551.845 463.219 565.817 458.508 580.313L383.444 593.874C373.924 595.594 367 603.881 367 613.555V715.999C367 725.604 373.828 733.852 383.264 735.647L457.916 749.843C462.649 764.766 468.613 779.142 475.688 792.851L432.673 854.834C427.158 862.782 428.122 873.538 434.962 880.379L507.401 952.817C514.192 959.609 524.853 960.613 532.794 955.21L595.541 912.515C609.133 919.501 623.378 925.397 638.16 930.085L652.356 1004.74C654.15 1014.17 662.399 1021 672.004 1021H774.447C784.121 1021 792.409 1014.08 794.128 1004.56L807.689 929.492C822.153 924.791 836.095 918.933 849.405 912.026L912.869 955.21C920.81 960.613 931.471 959.609 938.263 952.817L1010.7 880.379C1017.54 873.538 1018.51 862.782 1012.99 854.834L969.019 791.473C975.753 778.241 981.456 764.397 986.02 750.045L1061.74 735.646C1071.17 733.852 1078 725.603 1078 715.999V613.555C1078 603.881 1071.08 595.594 1061.56 593.874L985.43 580.121C980.893 566.196 975.283 552.756 968.698 539.898L1012.55 475.458C1017.95 467.517 1016.94 456.856 1010.15 450.064L937.714 377.626C930.873 370.785 920.117 369.822 912.169 375.337L848.513 419.513C835.531 412.837 821.954 407.156 807.881 402.571L794.128 326.444C792.409 316.924 784.121 310 774.447 310H672.004Z" fill="url(#paint0_linear_1148_184)"/>
<circle cx="722.5" cy="665.5" r="159.5" fill="url(#paint1_linear_1148_184)"/>
<defs>
<filter id="filter0_f_1148_184" x="267" y="267" width="911" height="911" filterUnits="userSpaceOnUse" color-interpolation-filters="sRGB">
<feFlood flood-opacity="0" result="BackgroundImageFix"/>
<feBlend mode="normal" in="SourceGraphic" in2="BackgroundImageFix" result="shape"/>
<feGaussianBlur stdDeviation="50" result="effect1_foregroundBlur_1148_184"/>
</filter>
<linearGradient id="paint0_linear_1148_184" x1="793.113" y1="387.309" x2="557.533" y2="977.78" gradientUnits="userSpaceOnUse">
<stop stop-color="#17F811"/>
<stop offset="1" stop-color="#05C300"/>
</linearGradient>
<linearGradient id="paint1_linear_1148_184" x1="805.5" y1="506" x2="633.5" y2="825" gradientUnits="userSpaceOnUse">
<stop stop-color="#038C00"/>
<stop offset="1" stop-color="#027600"/>
</linearGradient>
</defs>
</svg>
