<svg id="enterpreneur-proposal" xmlns="http://www.w3.org/2000/svg" xmlns:xlink="http://www.w3.org/1999/xlink" width="1080" height="1080" viewBox="0 0 1080 1080">
  <defs>
    <linearGradient id="linear-gradient" x1="-0.331" y1="1.365" x2="1" y2="-0.094" gradientUnits="objectBoundingBox">
      <stop offset="0" stop-color="#676767"/>
      <stop offset="1" stop-color="#707070"/>
    </linearGradient>
    <linearGradient id="linear-gradient-2" x1="0.561" y1="-0.017" x2="0" y2="1" gradientUnits="objectBoundingBox">
      <stop offset="0" stop-color="#434343"/>
      <stop offset="1" stop-color="#222"/>
    </linearGradient>
    <linearGradient id="linear-gradient-3" x1="-0.331" y1="1.365" x2="1" y2="-0.112" gradientUnits="objectBoundingBox">
      <stop offset="0" stop-color="#d4d4d4"/>
      <stop offset="1" stop-color="#f2f2f2"/>
    </linearGradient>
    <linearGradient id="linear-gradient-4" x1="0.629" y1="0.109" x2="-0.19" y2="1.377" gradientUnits="objectBoundingBox">
      <stop offset="0" stop-color="#676767"/>
      <stop offset="1" stop-color="#434343"/>
    </linearGradient>
  </defs>
  <rect id="Rectangle_177" data-name="Rectangle 177" width="1080" height="1080" fill="none"/>
  <g id="Group_291" data-name="Group 291" transform="translate(142)">
    <g id="Group_289" data-name="Group 289" transform="translate(-244.223 190.922)">
      <path id="Subtraction_115" data-name="Subtraction 115" d="M17548.5-7399.987l317.488-.013,210.922,265.891c0,188.486-.127,553.627-.127,553.627,0,36.208-26.537,65.561-59.273,65.561H17548.5c-32.736,0-59.273-29.353-59.273-65.561v-753.944C17489.223-7370.635,17515.76-7399.987,17548.5-7399.987Z" transform="translate(-17243 7402)" fill="url(#linear-gradient)"/>
    </g>
    <path id="Union_645" data-name="Union 645" d="M17524-6865.929a35,35,0,0,1-35-35,35,35,0,0,1,35-35h164.342a35,35,0,0,1,35,35,35,35,0,0,1-35,35Zm0-157.034a35,35,0,0,1-35-35,35,35,0,0,1,35-35h164.342a35,35,0,0,1,35,35,35,35,0,0,1-35,35Zm0-157.038a35,35,0,0,1-35-35,35,35,0,0,1,35-35h251.889a35,35,0,0,1,35,35,35,35,0,0,1-35,35Zm0-211a35,35,0,0,1-35-35,35,35,0,0,1,35-35h76a35,35,0,0,1,35,35,35,35,0,0,1-35,35Z" transform="translate(-17380.277 7806.887)" fill="rgba(0,0,0,0.15)"/>
    <path id="Union_650" data-name="Union 650" d="M17524-6865.929a35,35,0,0,1-35-35,35,35,0,0,1,35-35h164.342a35,35,0,0,1,35,35,35,35,0,0,1-35,35Zm0-157.034a35,35,0,0,1-35-35,35,35,0,0,1,35-35h164.342a35,35,0,0,1,35,35,35,35,0,0,1-35,35Zm0-157.038a35,35,0,0,1-35-35,35,35,0,0,1,35-35h251.889a35,35,0,0,1,35,35,35,35,0,0,1-35,35Zm0-211a35,35,0,0,1-35-35,35,35,0,0,1,35-35h76a35,35,0,0,1,35,35,35,35,0,0,1-35,35Z" transform="translate(-17373.223 7795.887)" fill="url(#linear-gradient-2)"/>
    <path id="Path_395" data-name="Path 395" d="M9.047-8.934,219.676,257.075,45.37,265.969c-25.057,0-45.37-25.474-45.37-56.9Z" transform="translate(369.715 201.871)" fill="rgba(0,0,0,0.15)"/>
    <path id="Path_396" data-name="Path 396" d="M.016.062,210.969,265.969H45.37c-25.057,0-45.37-25.474-45.37-56.9Z" transform="translate(378.715 192.859)" fill="#e0aaff"/>
  </g>
  <path id="Intersection_85" data-name="Intersection 85" d="M14666.591-17979.92c-32.739,0-59.276-29.354-59.276-65.562v-650.59l188.447-.006,210.922,265.889c0,125.078-.057,327.932-.095,450.27Z" transform="translate(-14275 18889)" fill="rgba(0,0,0,0.23)"/>
  <g id="Group_290" data-name="Group 290" transform="translate(-142)">
    <g id="Group_284" data-name="Group 284" transform="translate(244.094)">
      <path id="Subtraction_115-2" data-name="Subtraction 115" d="M17548.5-7399.987l317.488-.013,210.922,265.891c0,188.486-.127,553.627-.127,553.627,0,36.208-26.537,65.561-59.273,65.561H17548.5c-32.736,0-59.273-29.353-59.273-65.561v-753.944C17489.223-7370.635,17515.76-7399.987,17548.5-7399.987Z" transform="translate(-17243 7402)" fill="url(#linear-gradient-3)"/>
    </g>
    <path id="Union_556" data-name="Union 556" d="M17524-6865.929a35,35,0,0,1-35-35,35,35,0,0,1,35-35h164.342a35,35,0,0,1,35,35,35,35,0,0,1-35,35Zm0-157.034a35,35,0,0,1-35-35,35,35,0,0,1,35-35h164.342a35,35,0,0,1,35,35,35,35,0,0,1-35,35Zm0-157.038a35,35,0,0,1-35-35,35,35,0,0,1,35-35h251.889a35,35,0,0,1,35,35,35,35,0,0,1-35,35Zm0-211a35,35,0,0,1-35-35,35,35,0,0,1,35-35h76a35,35,0,0,1,35,35,35,35,0,0,1-35,35Z" transform="translate(-16891.961 7615.965)" fill="rgba(0,0,0,0.15)"/>
    <path id="Union_368" data-name="Union 368" d="M17524-6865.929a35,35,0,0,1-35-35,35,35,0,0,1,35-35h164.342a35,35,0,0,1,35,35,35,35,0,0,1-35,35Zm0-157.034a35,35,0,0,1-35-35,35,35,0,0,1,35-35h164.342a35,35,0,0,1,35,35,35,35,0,0,1-35,35Zm0-157.038a35,35,0,0,1-35-35,35,35,0,0,1,35-35h251.889a35,35,0,0,1,35,35,35,35,0,0,1-35,35Zm0-211a35,35,0,0,1-35-35,35,35,0,0,1,35-35h76a35,35,0,0,1,35,35,35,35,0,0,1-35,35Z" transform="translate(-16884.906 7604.965)" fill="url(#linear-gradient-4)"/>
    <path id="Path_383" data-name="Path 383" d="M9.047-8.934,219.676,257.075,45.37,265.969c-25.057,0-45.37-25.474-45.37-56.9Z" transform="translate(858.031 10.949)" fill="rgba(0,0,0,0.15)"/>
    <path id="Path_324" data-name="Path 324" d="M.016.062,210.969,265.969H45.37c-25.057,0-45.37-25.474-45.37-56.9Z" transform="translate(867.031 1.938)" fill="#9e9e9e"/>
  </g>
</svg>
