<svg id="format-pdf" xmlns="http://www.w3.org/2000/svg" width="1080" height="1080" viewBox="0 0 1080 1080">
  <rect id="Rectangle_1087" data-name="Rectangle 1087" width="1080" height="1080" fill="none"/>
  <g id="Group_290" data-name="Group 290" transform="translate(-488.316 -1)">
    <g id="Group_284" data-name="Group 284" transform="translate(490.316 1.999)">
      <path id="Subtraction_115" data-name="Subtraction 115" d="M72.194.016,458.885,0l256.9,323.847c0,229.571-.154,674.3-.154,674.3,0,44.1-32.321,79.851-72.192,79.851H72.194C32.321,1078,0,1042.25,0,998.149V79.866C0,35.767,32.321.016,72.194.016Z" transform="translate(0 0)" fill="#e9e9e9"/>
    </g>
    <path id="Union_368" data-name="Union 368" d="M42.629,724.778a42.629,42.629,0,0,1,0-85.257H242.79a42.629,42.629,0,1,1,0,85.257Zm0-191.264a42.629,42.629,0,0,1,0-85.258H242.79a42.629,42.629,0,1,1,0,85.258Zm0-191.264a42.629,42.629,0,0,1,0-85.258H349.422a42.629,42.629,0,1,1,0,85.258Zm0-256.992A42.629,42.629,0,0,1,42.629,0h92.566a42.629,42.629,0,1,1,0,85.258Z" transform="translate(628.894 174.909)" fill="#a2a2a2"/>
    <path id="Path_324" data-name="Path 324" d="M.019.062,256.954,323.929H55.259C24.74,323.929,0,292.9,0,254.629Z" transform="translate(949.144 1.937)" fill="#a2a2a2"/>
  </g>
  <path id="Intersection_87" data-name="Intersection 87" d="M16238-19102a114,114,0,0,1-114-114v-272a114,114,0,0,1,114-114h46.771c-.028,182.109-.1,407.164-.13,500Z" transform="translate(-15567 20058)" fill="rgba(0,0,0,0.15)"/>
  <g id="Group_142" data-name="Group 142" transform="translate(576.001 431)">
    <path id="Union_223" data-name="Union 223" d="M96,500A96,96,0,0,1,0,404V96A96,96,0,0,1,96,0H404a96,96,0,0,1,96,96V404a96,96,0,0,1-96,96Z" transform="translate(2 1.998)" fill="#f00b0e"/>
    <path id="Path_11" data-name="Path 11" d="M404.111,309.613c-2.034,1.259-7.845,2.034-11.525,2.034-12.009,0-26.729-5.52-47.551-14.43,8.038-.581,15.3-.872,21.887-.872,12.009,0,15.5,0,27.31,3,11.718,2.905,11.815,9.007,9.878,10.266ZM195.8,311.453c4.649-8.135,9.394-16.754,14.236-25.955a485.9,485.9,0,0,0,24.889-54.427,181.139,181.139,0,0,0,41.159,51.134c2.034,1.743,4.164,3.39,6.489,5.133C249.546,293.924,220.976,301.865,195.8,311.453ZM234.341,99.458c6.585,0,10.362,16.522,10.653,32.114.291,15.5-3.293,26.342-7.844,34.477-3.777-12.009-5.52-30.8-5.52-43.1C231.629,122.953,231.339,99.458,234.341,99.458ZM105.149,396.968c3.777-10.169,18.5-30.313,40.288-48.229,1.356-1.065,4.745-4.261,7.845-7.167C130.523,377.986,115.221,392.416,105.149,396.968ZM410.406,288.21c-6.585-6.489-21.306-9.878-43.581-10.169-15.108-.194-33.218,1.162-52.393,3.777-8.522-4.939-17.335-10.266-24.308-16.754-18.594-17.432-34.09-41.547-43.774-68.082.581-2.518,1.162-4.649,1.646-6.876,0,0,10.459-59.56,7.651-79.7a21.542,21.542,0,0,0-1.356-5.714l-.872-2.421c-2.808-6.547-8.426-13.52-17.238-13.142l-5.133-.165h-.1c-9.781,0-17.82,5.007-19.853,12.435-6.392,23.533.194,58.592,12.106,104.012l-3.1,7.457c-8.522,20.725-19.175,41.644-28.569,60.044l-1.259,2.421c-9.878,19.369-18.885,35.833-27.02,49.779l-8.426,4.455c-.581.387-15.011,7.941-18.4,9.975-28.666,17.142-47.725,36.608-50.883,52.1-1.007,4.842-.252,11.137,4.852,14.139l8.135,4.068a24.876,24.876,0,0,0,11.069,2.615c20.434,0,44.162-25.374,76.8-82.416a763.812,763.812,0,0,1,118.442-28.182c28.666,16.173,63.918,27.407,86.193,27.407a38.658,38.658,0,0,0,10.169-1.162,16.734,16.734,0,0,0,10.072-6.876c4.261-6.489,5.23-15.4,3.971-24.6-.29-2.712-2.518-6.1-4.842-8.426Z" transform="translate(1.538 1.288)" fill="#fff"/>
  </g>
</svg>
