<svg id="format-img" xmlns="http://www.w3.org/2000/svg" width="1080" height="1080" viewBox="0 0 1080 1080">
  <rect id="Rectangle_1087" data-name="Rectangle 1087" width="1080" height="1080" fill="none"/>
  <g id="Group_290" data-name="Group 290" transform="translate(-488.316 -1)">
    <g id="Group_284" data-name="Group 284" transform="translate(490.316 1.999)">
      <path id="Subtraction_115" data-name="Subtraction 115" d="M72.194.016,458.885,0l256.9,323.847c0,229.571-.154,674.3-.154,674.3,0,44.1-32.321,79.851-72.192,79.851H72.194C32.321,1078,0,1042.25,0,998.149V79.866C0,35.767,32.321.016,72.194.016Z" transform="translate(0 0)" fill="#e9e9e9"/>
    </g>
    <path id="Union_368" data-name="Union 368" d="M42.629,724.778a42.629,42.629,0,0,1,0-85.257H242.79a42.629,42.629,0,1,1,0,85.257Zm0-191.264a42.629,42.629,0,0,1,0-85.258H242.79a42.629,42.629,0,1,1,0,85.258Zm0-191.264a42.629,42.629,0,0,1,0-85.258H349.422a42.629,42.629,0,1,1,0,85.258Zm0-256.992A42.629,42.629,0,0,1,42.629,0h92.566a42.629,42.629,0,1,1,0,85.258Z" transform="translate(628.894 174.909)" fill="#a2a2a2"/>
    <path id="Path_324" data-name="Path 324" d="M.019.062,256.954,323.929H55.259C24.74,323.929,0,292.9,0,254.629Z" transform="translate(949.144 1.937)" fill="#a2a2a2"/>
  </g>
  <path id="Intersection_87" data-name="Intersection 87" d="M16238-19102a114,114,0,0,1-114-114v-272a114,114,0,0,1,114-114h46.771c-.028,182.109-.1,407.164-.13,500Z" transform="translate(-15567 20058)" fill="rgba(0,0,0,0.15)"/>
  <g id="Group_142" data-name="Group 142" transform="translate(576.001 431)">
    <path id="Union_223" data-name="Union 223" d="M96,500A96,96,0,0,1,0,404V96A96,96,0,0,1,96,0H404a96,96,0,0,1,96,96V404a96,96,0,0,1-96,96Z" transform="translate(2 1.998)" fill="#00acac"/>
    <g id="Group_141" data-name="Group 141" transform="translate(-53.021 -126.078)">
      <circle id="Ellipse_1" data-name="Ellipse 1" cx="43.304" cy="43.304" r="43.304" transform="translate(217.774 225.654)" fill="#fff"/>
      <path id="Union_228" data-name="Union 228" d="M107.428,157.068c-26.825,0-40.165-32.517-21.068-51.357l96.876-95.568a30,30,0,0,1,42.137,0l96.877,95.568c19.1,18.84,5.757,51.357-21.068,51.357Zm-50.016,0H7.151a29.728,29.728,0,0,1-8.969-1.355A28,28,0,0,1-9.4,151.98a29.177,29.177,0,0,1-10.138-12.571,29.173,29.173,0,0,1-2.013-16.024,27.971,27.971,0,0,1,2.576-8.047,29.738,29.738,0,0,1,5.25-7.4L43.5,48.575a28.973,28.973,0,0,1,41.756,0l9.625,9.983L56.663,96.925a41.376,41.376,0,0,0-12.326,29.757,43.066,43.066,0,0,0,13.074,30.383l0,0Z" transform="translate(150.354 373.431)" fill="#fff"/>
    </g>
  </g>
</svg>
