<svg id="hcm-jurnal" xmlns="http://www.w3.org/2000/svg" xmlns:xlink="http://www.w3.org/1999/xlink" width="1080" height="1080" viewBox="0 0 1080 1080">
  <defs>
    <linearGradient id="linear-gradient" x1="0.756" y1="0.091" x2="0.112" y2="0.925" gradientUnits="objectBoundingBox">
      <stop offset="0" stop-color="#26b4ff"/>
      <stop offset="1" stop-color="#2c89ff"/>
    </linearGradient>
    <linearGradient id="linear-gradient-2" x1="0.745" y1="-0.122" x2="0.319" y2="1.051" gradientUnits="objectBoundingBox">
      <stop offset="0" stop-color="#f3f2ef"/>
      <stop offset="1" stop-color="#d4d4d4"/>
    </linearGradient>
    <linearGradient id="linear-gradient-3" x1="0.549" x2="0.197" y2="1" gradientUnits="objectBoundingBox">
      <stop offset="0" stop-color="#fff"/>
      <stop offset="1" stop-color="#e9e9e9"/>
    </linearGradient>
  </defs>
  <rect id="Rectangle_177" data-name="Rectangle 177" width="1080" height="1080" fill="none"/>
  <g id="Group_232" data-name="Group 232">
    <path id="Union_50" data-name="Union 50" d="M-13941,6906a145,145,0,0,1-145-145V5975a145,145,0,0,1,145-145H-13374a80,80,0,0,1,80,80v916a80,80,0,0,1-80,80Z" transform="translate(14230.002 -5828)" fill="url(#linear-gradient)"/>
    <path id="Subtraction_13" data-name="Subtraction 13" d="M-13914,6906h-27a146.086,146.086,0,0,1-29.223-2.946,144.268,144.268,0,0,1-27.218-8.449,145.062,145.062,0,0,1-24.631-13.369,146.013,146.013,0,0,1-21.459-17.706,146.075,146.075,0,0,1-17.706-21.459,144.964,144.964,0,0,1-13.369-24.63,144.161,144.161,0,0,1-8.448-27.218A146.043,146.043,0,0,1-14086,6761V5975a146.035,146.035,0,0,1,2.946-29.222,144.215,144.215,0,0,1,8.448-27.218,144.927,144.927,0,0,1,13.369-24.63,146.126,146.126,0,0,1,17.706-21.459,146.115,146.115,0,0,1,21.459-17.706,145.068,145.068,0,0,1,24.631-13.369,144.283,144.283,0,0,1,27.218-8.449A146.086,146.086,0,0,1-13941,5830h27Z" transform="translate(14230.002 -5828)" fill="rgba(0,0,0,0.24)"/>
    <path id="Union_464" data-name="Union 464" d="M-14588.5-7155a122.5,122.5,0,0,1-122.5-122.5,122.5,122.5,0,0,1,122.5-122.5h606.5v245Z" transform="translate(14918.004 8170)" fill="url(#linear-gradient-2)"/>
    <path id="Union_467" data-name="Union 467" d="M-14622-6862.778V-7453h59.555v590.221a29.774,29.774,0,0,1-29.775,29.775A29.775,29.775,0,0,1-14622-6862.778Z" transform="translate(-6516.999 15484.723) rotate(90)" fill="rgba(0,0,0,0.24)"/>
    <path id="Union_371" data-name="Union 371" d="M11769-7204a30,30,0,0,1-30-30,30,30,0,0,1,30-30h261.539a30,30,0,0,1,30,30,30,30,0,0,1-30,30Zm0-136a30,30,0,0,1-30-30,30,30,0,0,1,30-30h69.818a30,30,0,0,1,30,30,30,30,0,0,1-30,30Z" transform="translate(-11328.27 7534)" fill="url(#linear-gradient-3)"/>
    <path id="Union_468" data-name="Union 468" d="M-14622-7345.107V-7453h160.771v107.891a80.383,80.383,0,0,1-80.384,80.383A80.385,80.385,0,0,1-14622-7345.107Z" transform="translate(14968.729 8315.721)" fill="#005ed6"/>
  </g>
</svg>
