<svg id="hcm-detasering" xmlns="http://www.w3.org/2000/svg" xmlns:xlink="http://www.w3.org/1999/xlink" width="1080" height="1080" viewBox="0 0 1080 1080">
  <defs>
    <linearGradient id="linear-gradient" x1="0.434" y1="0.179" x2="0.645" y2="0.964" gradientUnits="objectBoundingBox">
      <stop offset="0" stop-color="#26b4ff"/>
      <stop offset="1" stop-color="#2c89ff"/>
    </linearGradient>
    <linearGradient id="linear-gradient-2" x1="0.5" y1="-0.156" x2="0.5" y2="0.916" gradientUnits="objectBoundingBox">
      <stop offset="0" stop-color="#2c89ff"/>
      <stop offset="1" stop-color="#005ed6"/>
    </linearGradient>
    <linearGradient id="linear-gradient-3" x1="0.5" x2="0.712" y2="1" gradientUnits="objectBoundingBox">
      <stop offset="0" stop-color="#e3e3e3"/>
      <stop offset="1" stop-color="#d2d2d2"/>
    </linearGradient>
  </defs>
  <rect id="Rectangle_177" data-name="Rectangle 177" width="1080" height="1080" fill="none"/>
  <g id="Group_306" data-name="Group 306">
    <g id="Group_305" data-name="Group 305">
      <path id="Union_721" data-name="Union 721" d="M6023.375-17765.666a154.257,154.257,0,0,1-28.538-8.461,153.384,153.384,0,0,1-26.785-14.092,155.5,155.5,0,0,1-24.159-19.736,155.337,155.337,0,0,1-19.732-24.158,153.527,153.527,0,0,1-14.1-26.785,154.083,154.083,0,0,1-8.456-28.539,155.081,155.081,0,0,1-2.82-29.41,155.163,155.163,0,0,1,2.82-29.418,154.2,154.2,0,0,1,8.456-28.537,153.527,153.527,0,0,1,14.1-26.785,155.246,155.246,0,0,1,19.732-24.158l228.4-228.391a155.313,155.313,0,0,1,24.159-19.738,153.42,153.42,0,0,1,26.785-14.1,154.257,154.257,0,0,1,28.538-8.457,155.216,155.216,0,0,1,29.412-2.82,155.706,155.706,0,0,1,29.417,2.82,154.246,154.246,0,0,1,28.538,8.457,153.4,153.4,0,0,1,26.785,14.1,155.29,155.29,0,0,1,24.159,19.738,154.791,154.791,0,0,1,19.732,24.158,153.11,153.11,0,0,1,14.1,26.785,154.019,154.019,0,0,1,8.456,28.537,155.055,155.055,0,0,1,2.82,29.412,155.116,155.116,0,0,1-2.82,29.412,154.2,154.2,0,0,1-8.456,28.537,153.318,153.318,0,0,1-14.1,26.785,155.064,155.064,0,0,1-19.732,24.158l-228.4,228.4a155.524,155.524,0,0,1-24.159,19.736,153.4,153.4,0,0,1-26.785,14.092,154.268,154.268,0,0,1-28.538,8.461,155.533,155.533,0,0,1-29.412,2.816A155.576,155.576,0,0,1,6023.375-17765.666Zm194.171-405.037-189.5,189.51a63.067,63.067,0,0,0,0,89.094,63.076,63.076,0,0,0,89.095,0l189.5-189.508a63.07,63.07,0,0,0,0-89.1,62.807,62.807,0,0,0-44.547-18.422A62.806,62.806,0,0,0,6217.545-18170.7Zm329.8-118.93a153.963,153.963,0,0,1-28.538-8.461,152.96,152.96,0,0,1-26.785-14.092,155.267,155.267,0,0,1-24.159-19.738,155.13,155.13,0,0,1-19.732-24.158,153.279,153.279,0,0,1-14.1-26.785,153.647,153.647,0,0,1-8.456-28.537,155.086,155.086,0,0,1-2.82-29.412,155.188,155.188,0,0,1,2.82-29.416,153.785,153.785,0,0,1,8.456-28.533,152.812,152.812,0,0,1,14.1-26.785,155.039,155.039,0,0,1,19.732-24.158l228.4-228.4a155.278,155.278,0,0,1,24.159-19.736,153.227,153.227,0,0,1,26.785-14.092,154.257,154.257,0,0,1,28.538-8.461,155.053,155.053,0,0,1,29.412-2.82,155.462,155.462,0,0,1,29.417,2.82,154.22,154.22,0,0,1,28.533,8.461,153.054,153.054,0,0,1,26.785,14.092,155.05,155.05,0,0,1,24.159,19.736,155.1,155.1,0,0,1,19.737,24.158,153.351,153.351,0,0,1,14.1,26.785,154.119,154.119,0,0,1,8.456,28.539,155.041,155.041,0,0,1,2.82,29.41,155.046,155.046,0,0,1-2.82,29.412,154.055,154.055,0,0,1-8.456,28.537,153.282,153.282,0,0,1-14.1,26.785,155.019,155.019,0,0,1-19.737,24.16l-228.392,228.395a155.515,155.515,0,0,1-24.158,19.738,153.154,153.154,0,0,1-26.785,14.092,153.963,153.963,0,0,1-28.538,8.461,155.612,155.612,0,0,1-29.416,2.814A155.527,155.527,0,0,1,6547.342-18289.633Zm194.17-405.037L6552-18505.166a63.083,63.083,0,0,0,0,89.1,63.069,63.069,0,0,0,89.095,0l189.508-189.5a63.074,63.074,0,0,0,0-89.1,62.8,62.8,0,0,0-44.549-18.424A62.792,62.792,0,0,0,6741.513-18694.67Z" transform="translate(-5888.97 18833.031)" fill="url(#linear-gradient)"/>
      <path id="Union_723" data-name="Union 723" d="M5869.647-18523.549l-7.072-7.068a39,39,0,0,1,0-55.156l273.651-273.646a39,39,0,0,1,55.157,0l7.067,7.068a39,39,0,0,1,0,55.156L5924.8-18523.549a38.874,38.874,0,0,1-27.579,11.426A38.873,38.873,0,0,1,5869.647-18523.549Z" transform="translate(-5490.869 19231.836)" fill="url(#linear-gradient-2)"/>
    </g>
    <path id="Union_722" data-name="Union 722" d="M6495.085-17849.15l-92.826-8.121a19,19,0,0,1-16.409-24.818l63.923-196.07c6.24-19.141,34.053-16.707,36.878,3.227l28.9,204.191a18.922,18.922,0,0,1-5.381,16.1,18.872,18.872,0,0,1-13.4,5.564Q6495.939-17849.076,6495.085-17849.15Zm175.954-110.455-109.112-175c-10.649-17.078,9.094-36.822,26.177-26.172l175,109.111a19,19,0,0,1,3.382,29.559l-65.885,65.885a18.871,18.871,0,0,1-13.415,5.566A18.934,18.934,0,0,1,6671.039-17959.605Zm180.218-246.844-204.192-28.9c-19.932-2.824-22.365-30.639-3.226-36.879l196.07-63.922a19,19,0,0,1,24.818,16.408l8.122,92.826a18.9,18.9,0,0,1-5.49,15.088,18.91,18.91,0,0,1-13.386,5.57A19.2,19.2,0,0,1,6851.257-18206.449ZM5937.839-18321.7l-8.122-92.82a19,19,0,0,1,21.592-20.471l204.191,28.9c16.631,2.354,21.078,22.111,10.976,32.215a19.25,19.25,0,0,1-7.749,4.664l-196.07,63.924a19.041,19.041,0,0,1-5.907.945A19.019,19.019,0,0,1,5937.839-18321.7Zm277.335-159.664-175-109.111a19,19,0,0,1-3.382-29.559l65.885-65.889a19,19,0,0,1,29.559,3.387l109.111,175a18.562,18.562,0,0,1-2.688,23.488,19.043,19.043,0,0,1-13.379,5.7A18.954,18.954,0,0,1,6215.174-18481.361Zm100.74-85.137-28.9-204.191a19,19,0,0,1,20.47-21.594l92.825,8.117a19.011,19.011,0,0,1,16.409,24.824l-63.923,196.07a19.29,19.29,0,0,1-4.66,7.748,18.709,18.709,0,0,1-13.3,5.365C6326.123-18550.158,6317.426-18555.814,6315.915-18566.5Z" transform="translate(-5861.283 18860.719)" fill="url(#linear-gradient-3)"/>
  </g>
</svg>
