<svg id="hcm-tugas-belajar" xmlns="http://www.w3.org/2000/svg" xmlns:xlink="http://www.w3.org/1999/xlink" width="1080" height="1080" viewBox="0 0 1080 1080">
  <defs>
    <linearGradient id="linear-gradient" x1="-0.153" y1="1.227" x2="0.971" y2="0.097" gradientUnits="objectBoundingBox">
      <stop offset="0" stop-color="#005ed6"/>
      <stop offset="1" stop-color="#219ebc"/>
    </linearGradient>
    <linearGradient id="linear-gradient-2" x1="1" y1="-0.475" x2="-0.27" y2="1.229" gradientUnits="objectBoundingBox">
      <stop offset="0" stop-color="#fff"/>
      <stop offset="1" stop-color="#8ecae6"/>
    </linearGradient>
    <linearGradient id="linear-gradient-3" x1="0.707" x2="0.188" y2="1.18" gradientUnits="objectBoundingBox">
      <stop offset="0" stop-color="#fccb3c"/>
      <stop offset="1" stop-color="#fa0"/>
    </linearGradient>
  </defs>
  <rect id="Rectangle_177" data-name="Rectangle 177" width="1080" height="1080" fill="none"/>
  <g id="Group_313" data-name="Group 313">
    <g id="Group_209" data-name="Group 209" transform="translate(-142)">
      <path id="Subtraction_98" data-name="Subtraction 98" d="M17548.5-7399.987l317.488-.013,210.922,265.891c0,188.486-.127,553.627-.127,553.627,0,36.208-26.537,65.561-59.273,65.561H17548.5c-32.736,0-59.273-29.353-59.273-65.561v-753.944C17489.223-7370.635,17515.76-7399.987,17548.5-7399.987Z" transform="translate(-17345.223 7402)" fill="url(#linear-gradient)"/>
      <path id="Path_311" data-name="Path 311" d="M.016.062,210.969,265.969H45.37c-25.057,0-45.37-25.474-45.37-56.9Z" transform="translate(520.715 1.938)" fill="#8ecae6"/>
      <path id="Union_576" data-name="Union 576" d="M17524-6919.927a35,35,0,0,1-35-35,35,35,0,0,1,35-35h39.365a35,35,0,0,1,35,35,35,35,0,0,1-35,35Zm0-130.036a35,35,0,0,1-35-35,35,35,0,0,1,35-35h164.338a35,35,0,0,1,35,35,35,35,0,0,1-35,35Zm0-130.036a35,35,0,0,1-35-35,35,35,0,0,1,35-35h219.643a35,35,0,0,1,35,35,35,35,0,0,1-35,35Zm0-179a35,35,0,0,1-35-35,35,35,0,0,1,35-35h76a35,35,0,0,1,35,35,35,35,0,0,1-35,35Z" transform="translate(-17241.643 7624.004)" fill="rgba(0,0,0,0.24)"/>
      <path id="Union_318" data-name="Union 318" d="M17524-6919.927a35,35,0,0,1-35-35,35,35,0,0,1,35-35h39.365a35,35,0,0,1,35,35,35,35,0,0,1-35,35Zm0-130.036a35,35,0,0,1-35-35,35,35,0,0,1,35-35h164.338a35,35,0,0,1,35,35,35,35,0,0,1-35,35Zm0-130.036a35,35,0,0,1-35-35,35,35,0,0,1,35-35h219.643a35,35,0,0,1,35,35,35,35,0,0,1-35,35Zm0-179a35,35,0,0,1-35-35,35,35,0,0,1,35-35h76a35,35,0,0,1,35,35,35,35,0,0,1-35,35Z" transform="translate(-17231.223 7604.965)" fill="url(#linear-gradient-2)"/>
    </g>
    <path id="Intersection_96" data-name="Intersection 96" d="M-608.9-18001.922A308.635,308.635,0,0,1-630-18114.5c0-113.98,61.493-213.377,152.649-265.881-.038,159.357-.092,312.9-.092,312.9,0,36.209-26.539,65.561-59.274,65.561Z" transform="translate(1067 18889)" fill="rgba(0,0,0,0.15)"/>
    <g id="Group_213" data-name="Group 213">
      <ellipse id="Ellipse_132" data-name="Ellipse 132" cx="301" cy="305.5" rx="301" ry="305.5" transform="translate(476.001 467)" fill="url(#linear-gradient-3)"/>
      <path id="Union_745" data-name="Union 745" d="M13036.336-7137.533a44.753,44.753,0,0,1-36.628-16.585L12918.5-7254.4a44.822,44.822,0,0,1,6.628-63.046,44.825,44.825,0,0,1,63.046,6.624l48.168,59.484,155.318-191.8a44.823,44.823,0,0,1,63.042-6.627,44.822,44.822,0,0,1,6.628,63.046l-188.358,232.608a44.74,44.74,0,0,1-34.862,16.616C13037.518-7137.5,13036.926-7137.51,13036.336-7137.533Z" transform="translate(-12312.912 8105.127)" fill="rgba(0,0,0,0.15)"/>
      <path id="Union_319" data-name="Union 319" d="M13036.336-7137.533a44.753,44.753,0,0,1-36.628-16.585L12918.5-7254.4a44.822,44.822,0,0,1,6.628-63.046,44.825,44.825,0,0,1,63.046,6.624l48.168,59.484,155.318-191.8a44.823,44.823,0,0,1,63.042-6.627,44.822,44.822,0,0,1,6.628,63.046l-188.358,232.608a44.74,44.74,0,0,1-34.862,16.616C13037.518-7137.5,13036.926-7137.51,13036.336-7137.533Z" transform="translate(-12312.912 8071.127)" fill="#fff1c8"/>
    </g>
  </g>
</svg>
