<svg xmlns="http://www.w3.org/2000/svg" xmlns:xlink="http://www.w3.org/1999/xlink" width="2397.863" height="3023.634" viewBox="0 0 2397.863 3023.634">
  <defs>
    <radialGradient id="radial-gradient" cx="0.5" cy="0.5" r="0.5" gradientUnits="objectBoundingBox">
      <stop offset="0" stop-opacity="0.188"/>
      <stop offset="1" stop-opacity="0"/>
    </radialGradient>
    <linearGradient id="linear-gradient" x1="0.47" x2="0.137" y2="1.999" gradientUnits="objectBoundingBox">
      <stop offset="0" stop-color="#26b4ff"/>
      <stop offset="1" stop-color="#2c89ff"/>
    </linearGradient>
    <linearGradient id="linear-gradient-2" x1="0.853" x2="0.5" y2="0.858" xlink:href="#linear-gradient"/>
    <linearGradient id="linear-gradient-3" x1="1" y1="-0.848" x2="-0.969" y2="1.539" gradientUnits="objectBoundingBox">
      <stop offset="0" stop-color="#2c89ff"/>
      <stop offset="1" stop-color="#005ed6"/>
    </linearGradient>
    <linearGradient id="linear-gradient-4" x1="0.709" y1="-0.109" x2="0.322" y2="1.069" gradientUnits="objectBoundingBox">
      <stop offset="0" stop-color="#ffda74"/>
      <stop offset="1" stop-color="#fccb3c"/>
    </linearGradient>
  </defs>
  <g id="paint-brush" transform="translate(-430 -266.366)">
    <ellipse id="Ellipse_165" data-name="Ellipse 165" cx="872" cy="203.5" rx="872" ry="203.5" transform="translate(430 2883)" fill="url(#radial-gradient)"/>
    <path id="Rectangle_1412" data-name="Rectangle 1412" d="M0,0H1744a0,0,0,0,1,0,0V264a198,198,0,0,1-198,198H198A198,198,0,0,1,0,264V0A0,0,0,0,1,0,0Z" transform="translate(430 1835)" fill="url(#linear-gradient)"/>
    <path id="Subtraction_204" data-name="Subtraction 204" d="M1661-10398H-83v-1238a161.169,161.169,0,0,1,3.25-32.245,159.157,159.157,0,0,1,9.323-30.033,160.03,160.03,0,0,1,14.752-27.18,161.264,161.264,0,0,1,19.537-23.68,161.179,161.179,0,0,1,23.68-19.537,160.111,160.111,0,0,1,27.178-14.752,159.217,159.217,0,0,1,30.034-9.322A161.162,161.162,0,0,1,77-11796H214.04l55.509,876c.44,6.968,3.213,12.8,8.018,16.86a24.614,24.614,0,0,0,15.932,5.622,24.616,24.616,0,0,0,15.934-5.622c4.8-4.062,7.578-9.893,8.02-16.86l55.508-876h669.621l41.148,294.112a23.453,23.453,0,0,0,8.512,15.506,24.553,24.553,0,0,0,15.255,5.169,24.559,24.559,0,0,0,15.258-5.169,23.452,23.452,0,0,0,8.512-15.506l41.15-294.112H1501a161.161,161.161,0,0,1,32.246,3.251,159.17,159.17,0,0,1,30.034,9.322,160.111,160.111,0,0,1,27.178,14.752,161.17,161.17,0,0,1,23.68,19.537,161.3,161.3,0,0,1,19.538,23.68,160.033,160.033,0,0,1,14.752,27.18,159.189,159.189,0,0,1,9.323,30.033A161.165,161.165,0,0,1,1661-11636v1238Z" transform="translate(513 12234)" fill="url(#linear-gradient-2)"/>
    <path id="Subtraction_203" data-name="Subtraction 203" d="M121-11006h-6a199.5,199.5,0,0,1-39.9-4.022,197.077,197.077,0,0,1-37.167-11.537A198.062,198.062,0,0,1,4.3-11039.815a199.462,199.462,0,0,1-29.3-24.178,199.383,199.383,0,0,1-24.178-29.3,198.011,198.011,0,0,1-18.256-33.634,196.98,196.98,0,0,1-11.537-37.166A199.447,199.447,0,0,1-83-11204v-592H319v592a199.459,199.459,0,0,1-4.023,39.9,196.979,196.979,0,0,1-11.537,37.166,198.028,198.028,0,0,1-18.255,33.634,199.391,199.391,0,0,1-24.177,29.3,199.433,199.433,0,0,1-29.3,24.178,198.07,198.07,0,0,1-33.633,18.255,197.071,197.071,0,0,1-37.166,11.537A199.494,199.494,0,0,1,121-11006Zm-3-286a82.093,82.093,0,0,0-82,82,82.093,82.093,0,0,0,82,82,82.093,82.093,0,0,0,82-82A82.093,82.093,0,0,0,118-11292Z" transform="translate(1184 14093)" fill="url(#linear-gradient-3)"/>
    <rect id="Rectangle_1415" data-name="Rectangle 1415" width="402" height="58" transform="translate(1101 2297)" fill="rgba(0,0,0,0.15)"/>
    <path id="Intersection_88" data-name="Intersection 88" d="M1462.008-10959.427c-37.66-10.8-37.66-64.171,0-74.976L1661-11091.491v189.154Zm-8.984-335.707-28.656-103.545a13.987,13.987,0,0,0-9.622-9.723l-102.505-29.47c-13.51-3.885-13.51-23.027,0-26.909l102.505-29.472a13.981,13.981,0,0,0,9.622-9.721l28.656-103.548c3.786-13.687,23.2-13.687,26.984,0l28.655,103.548a13.987,13.987,0,0,0,9.622,9.721l102.505,29.472c13.51,3.882,13.51,23.024,0,26.909l-102.505,29.47a13.993,13.993,0,0,0-9.622,9.723l-28.655,103.545a13.707,13.707,0,0,1-13.492,10.267A13.707,13.707,0,0,1,1453.024-11295.134Z" transform="translate(513.001 12136.366)" fill="rgba(0,0,0,0.15)"/>
    <path id="Union_696" data-name="Union 696" d="M364.65-10604.035l-62.414-225.076a39,39,0,0,0-26.826-27.068l-223.555-64.134c-37.66-10.8-37.66-64.172,0-74.976l223.555-64.137a39,39,0,0,0,26.826-27.066l62.414-225.076c10.567-38.106,64.6-38.106,75.165,0l62.411,225.076a39.005,39.005,0,0,0,26.829,27.066l223.555,64.137c37.66,10.8,37.66,64.172,0,74.976l-223.555,64.134a39.006,39.006,0,0,0-26.829,27.068l-62.411,225.076c-5.284,19.052-21.433,28.578-37.583,28.578S369.934-10584.983,364.65-10604.035ZM42.872-11256.021l-28.655-103.546a13.992,13.992,0,0,0-9.623-9.721l-102.5-29.472c-13.509-3.884-13.509-23.025,0-26.909l102.5-29.47a13.99,13.99,0,0,0,9.623-9.721l28.655-103.548c3.786-13.687,23.2-13.687,26.983,0l28.655,103.548a13.99,13.99,0,0,0,9.623,9.721l102.5,29.47c13.509,3.884,13.509,23.025,0,26.909l-102.5,29.472a13.992,13.992,0,0,0-9.623,9.721l-28.655,103.546a13.709,13.709,0,0,1-13.492,10.268A13.709,13.709,0,0,1,42.872-11256.021Zm569.566-73.763-39.927-144.062a22,22,0,0,0-15.131-15.271l-142.881-41.01c-21.241-6.1-21.241-36.2,0-42.293l142.881-41.013a21.991,21.991,0,0,0,15.131-15.271l39.927-144.062c5.958-21.5,36.443-21.5,42.4,0l39.93,144.062a21.992,21.992,0,0,0,15.128,15.271l142.881,41.013c21.241,6.1,21.241,36.2,0,42.293l-142.881,41.01a22,22,0,0,0-15.128,15.271l-39.93,144.062a21.546,21.546,0,0,1-21.2,16.124A21.546,21.546,0,0,1,612.438-11329.784Z" transform="translate(1959.153 12055.254)" fill="url(#linear-gradient-4)"/>
  </g>
</svg>
