<svg width="1080" height="1080" viewBox="0 0 1080 1080" fill="none" xmlns="http://www.w3.org/2000/svg">
<circle cx="540" cy="540" r="538" fill="url(#paint0_linear_1169_128)"/>
<g filter="url(#filter0_f_1169_128)">
<path fill-rule="evenodd" clip-rule="evenodd" d="M470.476 357.738C470.476 411.717 426.717 455.476 372.738 455.476C318.759 455.476 275 411.717 275 357.738C275 303.759 318.759 260 372.738 260C426.717 260 470.476 303.759 470.476 357.738ZM829.734 775.107C829.734 829.087 785.975 872.845 731.996 872.845C678.017 872.845 634.258 829.087 634.258 775.107C634.258 721.128 678.017 677.369 731.996 677.369C785.975 677.369 829.734 721.128 829.734 775.107ZM794.879 322.64C823.637 351.397 823.637 398.023 794.879 426.78L411.84 809.819C383.083 838.576 336.458 838.576 307.7 809.819C278.943 781.061 278.943 734.436 307.7 705.679L690.739 322.64C719.497 293.882 766.122 293.882 794.879 322.64Z" fill="black" fill-opacity="0.25"/>
</g>
<path fill-rule="evenodd" clip-rule="evenodd" d="M458.113 330.433C458.113 384.413 414.354 428.172 360.375 428.172C306.396 428.172 262.637 384.413 262.637 330.433C262.637 276.454 306.396 232.695 360.375 232.695C414.354 232.695 458.113 276.454 458.113 330.433ZM817.371 747.803C817.371 801.782 773.612 845.541 719.633 845.541C665.653 845.541 621.895 801.782 621.895 747.803C621.895 693.823 665.653 650.064 719.633 650.064C773.612 650.064 817.371 693.823 817.371 747.803ZM782.516 295.335C811.273 324.093 811.273 370.718 782.516 399.475L399.477 782.514C370.72 811.272 324.095 811.272 295.337 782.514C266.58 753.757 266.58 707.131 295.337 678.374L678.376 295.335C707.133 266.578 753.758 266.578 782.516 295.335Z" fill="white"/>
<defs>
<filter id="filter0_f_1169_128" x="175" y="160" width="754.734" height="812.846" filterUnits="userSpaceOnUse" color-interpolation-filters="sRGB">
<feFlood flood-opacity="0" result="BackgroundImageFix"/>
<feBlend mode="normal" in="SourceGraphic" in2="BackgroundImageFix" result="shape"/>
<feGaussianBlur stdDeviation="50" result="effect1_foregroundBlur_1169_128"/>
</filter>
<linearGradient id="paint0_linear_1169_128" x1="176.344" y1="-27.9378" x2="612.203" y2="1235.61" gradientUnits="userSpaceOnUse">
<stop stop-color="#CB5DF1"/>
<stop offset="1" stop-color="#9F21E3"/>
</linearGradient>
</defs>
</svg>
