<svg id="portfolio-dedication" xmlns="http://www.w3.org/2000/svg" xmlns:xlink="http://www.w3.org/1999/xlink" width="1080" height="1080" viewBox="0 0 1080 1080">
  <defs>
    <linearGradient id="linear-gradient" x1="0.5" y1="0.305" x2="0.5" y2="1" gradientUnits="objectBoundingBox">
      <stop offset="0" stop-color="#ffd868"/>
      <stop offset="1" stop-color="#f3ba1d"/>
    </linearGradient>
    <linearGradient id="linear-gradient-2" x1="0.401" y1="0.786" x2="0.777" y2="0.077" gradientUnits="objectBoundingBox">
      <stop offset="0" stop-color="#9e00d6"/>
      <stop offset="1" stop-color="#f0e"/>
    </linearGradient>
  </defs>
  <g id="Group_38" data-name="Group 38" transform="translate(0 1)">
    <path id="Union_40" data-name="Union 40" d="M-6611.519,6418.275s-6.422-110.654,34.167-231.6,205.48-239.427,223.239-172.1-78,93.879-88.89,152.042,43.648,2.77,130.022-86.088,143.953-261.016,186.466-250.026-5.508,171.064-105.479,356.169-276.049,231.6-276.049,231.6Zm-177.441,0s-176.076-46.5-276.048-231.6S-7213,5841.493-7170.489,5830.5s100.095,161.17,186.467,250.026,140.906,144.249,130.02,86.088-106.649-84.711-88.888-152.042,182.652,51.146,223.24,172.1,34.167,231.6,34.167,231.6Z" transform="translate(7189 -5340.012)" fill="url(#linear-gradient)"/>
    <path id="Union_39" data-name="Union 39" d="M-6774.722,6641.319c-.55,2.588-.767,3.964-.767,3.964v-7.394c-7.532-32.112-47.029-162.366-208.561-262.908-68.385-42.567-113-76.41-138.825-114.639-38.91-45.508-63.126-109.409-63.126-180.174,0-138.163,92.3-250.168,206.151-250.168a173.443,173.443,0,0,1,67.63,13.771c69.21,19.255,130.042,61.637,137.5,66.951,7.456-5.314,68.288-47.7,137.5-66.951A173.42,173.42,0,0,1-6569.594,5830c113.852,0,206.15,112,206.15,250.168,0,70.765-24.21,134.666-63.125,180.174-25.827,38.229-70.439,72.071-138.825,114.639-161.531,100.542-201.03,230.8-208.56,262.909v7.393S-6774.173,6643.907-6774.722,6641.319Z" transform="translate(7314.723 -5829.001)" fill="url(#linear-gradient-2)"/>
  </g>
  <rect id="Rectangle_177" data-name="Rectangle 177" width="1080" height="1080" fill="none"/>
</svg>
