<svg id="portfolio-certification" xmlns="http://www.w3.org/2000/svg" xmlns:xlink="http://www.w3.org/1999/xlink" width="1080" height="1080" viewBox="0 0 1080 1080">
  <defs>
    <linearGradient id="linear-gradient" x1="0.5" y1="0.249" x2="0.5" y2="0.653" gradientUnits="objectBoundingBox">
      <stop offset="0" stop-color="#b55f08"/>
      <stop offset="1" stop-color="#d98500"/>
    </linearGradient>
    <linearGradient id="linear-gradient-2" x1="0.5" y1="0.277" x2="0.5" y2="1.523" gradientUnits="objectBoundingBox">
      <stop offset="0" stop-color="#ffce48"/>
      <stop offset="1" stop-color="#ea8c2f"/>
    </linearGradient>
  </defs>
  <g id="Group_42" data-name="Group 42">
    <path id="Union_47" data-name="Union 47" d="M-11464.26,5960.545l-122.526,336.633-49.134-174.924L-11786,6224.671l143.65-394.672,178.091,64.821,178.091-64.821,143.649,394.672-150.08-102.417-49.134,174.924Z" transform="translate(12004.26 -5217.178)" fill="url(#linear-gradient)"/>
    <path id="Union_46" data-name="Union 46" d="M-10132.873,6619.526l-80.288-56a37.83,37.83,0,0,0-21.738-6.833,37.823,37.823,0,0,0-21.738,6.833l-80.291,56a37.708,37.708,0,0,1-21.647,6.856,38.236,38.236,0,0,1-11.958-1.923,38.289,38.289,0,0,1-10.749-5.542,37.567,37.567,0,0,1-8.582-8.807,38.09,38.09,0,0,1-5.456-11.731l-26.343-96.349a37.836,37.836,0,0,0-12.15-19.022,37.83,37.83,0,0,0-20.8-8.775l-97.932-9.6a38.51,38.51,0,0,1-9.186-2.049,37.5,37.5,0,0,1-8.049-4.028,38.262,38.262,0,0,1-11.923-12.673,38.267,38.267,0,0,1-5.085-16.64,37.288,37.288,0,0,1,.5-8.986,38.33,38.33,0,0,1,2.78-8.993l41.365-92.235a37.877,37.877,0,0,0,2.756-22.112,37.865,37.865,0,0,0-10.116-19.857l-69.918-72.287a38.4,38.4,0,0,1-5.656-7.481,37.5,37.5,0,0,1-3.527-8.25,38.306,38.306,0,0,1-.92-17.32,38.287,38.287,0,0,1,6.816-15.949,37.562,37.562,0,0,1,6.145-6.537,38.593,38.593,0,0,1,7.881-5.08l89.549-43.4a37.864,37.864,0,0,0,16.381-15.273,37.855,37.855,0,0,0,4.93-21.848l-7.761-100.517a37.771,37.771,0,0,1,2.092-15.778,37.63,37.63,0,0,1,7.865-12.918,38.543,38.543,0,0,1,5.781-5.109,38.527,38.527,0,0,1,6.7-3.857,37.371,37.371,0,0,1,15.351-3.287,38.468,38.468,0,0,1,9.741,1.268l94.562,24.8a37.989,37.989,0,0,0,9.642,1.246,38.037,38.037,0,0,0,31.087-16.151l56.772-80.771a38.562,38.562,0,0,1,6.4-7.064,37.521,37.521,0,0,1,7.577-5.048,38.3,38.3,0,0,1,17.117-4.037,38.3,38.3,0,0,1,17.117,4.037,37.42,37.42,0,0,1,7.574,5.048,38.467,38.467,0,0,1,6.4,7.064l56.773,80.771a38.035,38.035,0,0,0,31.087,16.151,38,38,0,0,0,9.642-1.246l94.562-24.8a38.444,38.444,0,0,1,9.74-1.268,37.376,37.376,0,0,1,15.352,3.287,38.376,38.376,0,0,1,6.7,3.857,38.591,38.591,0,0,1,5.781,5.106,37.684,37.684,0,0,1,7.865,12.921,37.718,37.718,0,0,1,2.091,15.778l-7.761,100.517a37.856,37.856,0,0,0,4.931,21.848,37.843,37.843,0,0,0,16.381,15.273l89.546,43.4a38.481,38.481,0,0,1,7.884,5.08,37.562,37.562,0,0,1,6.145,6.537,38.3,38.3,0,0,1,6.816,15.949,38.293,38.293,0,0,1-.921,17.32,37.445,37.445,0,0,1-3.524,8.25,38.6,38.6,0,0,1-5.658,7.481l-69.921,72.287a37.883,37.883,0,0,0-10.114,19.857,37.879,37.879,0,0,0,2.756,22.112l41.366,92.235a38.607,38.607,0,0,1,2.78,8.993,37.589,37.589,0,0,1,.5,8.986,38.343,38.343,0,0,1-5.085,16.643,38.3,38.3,0,0,1-11.924,12.67,37.473,37.473,0,0,1-8.049,4.028,38.489,38.489,0,0,1-9.186,2.049l-97.934,9.6a37.833,37.833,0,0,0-20.794,8.775,37.865,37.865,0,0,0-12.152,19.022l-26.34,96.349a38,38,0,0,1-5.459,11.728,37.46,37.46,0,0,1-8.583,8.81,38.279,38.279,0,0,1-10.749,5.539,38.2,38.2,0,0,1-11.954,1.926A37.7,37.7,0,0,1-10132.873,6619.526Zm-334.359-389.8c0,128.324,104.4,232.722,232.723,232.722s232.725-104.4,232.725-232.722a231.335,231.335,0,0,0-32.064-117.785l-119.425,164.375,0,.005-78.426,107.944a43.459,43.459,0,0,1-35.243,17.941,43.394,43.394,0,0,1-10.139-1.2,43.371,43.371,0,0,1-25.6-16.864l-85.021-117.023a43.519,43.519,0,0,1,9.629-60.786,43.517,43.517,0,0,1,60.786,9.628l50.138,69.011,43.458-59.812c.037-.056.08-.112.117-.166l130.666-179.844a231.524,231.524,0,0,0-141.6-48.151C-10362.834,5997.005-10467.232,6101.4-10467.232,6229.728Z" transform="translate(10775.166 -5834.262)" fill="url(#linear-gradient-2)"/>
  </g>
  <rect id="Rectangle_177" data-name="Rectangle 177" width="1080" height="1080" fill="none"/>
</svg>
