<svg xmlns="http://www.w3.org/2000/svg" xmlns:xlink="http://www.w3.org/1999/xlink" width="2381" height="2981" viewBox="0 0 2381 2981">
  <defs>
    <radialGradient id="radial-gradient" cx="0.5" cy="0.5" r="0.5" gradientUnits="objectBoundingBox">
      <stop offset="0" stop-opacity="0.122"/>
      <stop offset="1" stop-opacity="0"/>
    </radialGradient>
  </defs>
  <g id="porto-0" transform="translate(-430 -309)">
    <ellipse id="Ellipse_165" data-name="Ellipse 165" cx="1190.5" cy="203.5" rx="1190.5" ry="203.5" transform="translate(430 2883)" fill="url(#radial-gradient)"/>
    <g id="Group_281" data-name="Group 281" transform="translate(606.107 307)">
      <path id="Path_8" data-name="Path 8" d="M175.514.019l748.1-.034,816.157,817.544c0,502.728.019,1368.264.019,1368.264,0,96.573-78.581,174.862-175.515,174.862H175.514C78.581,2360.654,0,2282.366,0,2185.792V174.88C0,78.307,78.581.019,175.514.019Z" transform="translate(144 2.016)" fill="rgba(107,107,107,0.47)"/>
      <path id="Union_692" data-name="Union 692" d="M-15197.527,5483.013c-.225-187.372-152.844-339.81-340.212-339.81s-339.992,152.438-340.216,339.81h-157.153c.015-16.845.882-33.818,2.571-50.446a498.29,498.29,0,0,1,7.534-49.383c3.275-16.008,7.4-32.045,12.254-47.665,4.795-15.416,10.425-30.792,16.726-45.7,6.243-14.756,13.291-29.386,20.945-43.474,7.592-13.98,15.975-27.779,24.912-41.011,8.888-13.153,18.518-26.034,28.631-38.288,10.1-12.235,20.9-24.118,32.1-35.319s23.1-22.011,35.319-32.1c12.246-10.106,25.128-19.74,38.287-28.635,13.223-8.927,27.017-17.31,41.008-24.913,14.067-7.639,28.7-14.687,43.478-20.941,14.909-6.3,30.282-11.931,45.7-16.726,15.6-4.85,31.638-8.974,47.664-12.257,16.236-3.319,32.854-5.854,49.387-7.534a505.084,505.084,0,0,1,50.853-2.568,505.167,505.167,0,0,1,50.852,2.568c16.53,1.68,33.145,4.215,49.384,7.534,16.011,3.279,32.052,7.4,47.667,12.257,15.413,4.8,30.786,10.421,45.694,16.726,14.785,6.257,29.41,13.3,43.475,20.941,14,7.606,27.8,15.99,41.012,24.913,13.138,8.88,26.022,18.514,38.286,28.635,12.213,10.081,24.1,20.883,35.32,32.1,11.183,11.183,21.985,23.066,32.1,35.319s19.74,25.131,28.627,38.288c8.913,13.186,17.295,26.984,24.916,41.011,7.654,14.088,14.7,28.718,20.941,43.474,6.3,14.9,11.93,30.281,16.726,45.7,4.85,15.576,8.971,31.613,12.257,47.665a499.235,499.235,0,0,1,7.537,49.383c1.688,16.646,2.551,33.619,2.565,50.446Zm-186.081-868.766a162.25,162.25,0,0,1,162.25-162.25,162.25,162.25,0,0,1,162.245,162.25,162.246,162.246,0,0,1-162.245,162.246A162.247,162.247,0,0,1-15383.608,4614.248Zm-632.765,0A162.25,162.25,0,0,1-15854.124,4452a162.249,162.249,0,0,1,162.246,162.25,162.246,162.246,0,0,1-162.246,162.246A162.246,162.246,0,0,1-16016.373,4614.248Z" transform="translate(16526.426 -3432.484)" fill="rgba(0,0,0,0.15)"/>
      <path id="Union_693" data-name="Union 693" d="M-15197.527,5483.012c-.226-187.372-152.844-339.81-340.212-339.81s-339.991,152.438-340.216,339.81h-157.152a504.857,504.857,0,0,1,2.571-50.446,498.312,498.312,0,0,1,7.534-49.383c3.275-16.008,7.4-32.044,12.254-47.664,4.794-15.416,10.425-30.793,16.726-45.7,6.242-14.756,13.291-29.385,20.944-43.474,7.592-13.98,15.975-27.779,24.913-41.011,8.887-13.153,18.518-26.034,28.631-38.288,10.1-12.235,20.9-24.118,32.1-35.319s23.1-22.011,35.319-32.1c12.246-10.105,25.128-19.74,38.288-28.634,13.222-8.927,27.017-17.31,41.007-24.913,14.067-7.639,28.7-14.687,43.478-20.94,14.909-6.3,30.282-11.931,45.7-16.726,15.6-4.85,31.638-8.974,47.664-12.257,16.236-3.319,32.854-5.854,49.386-7.534a505.12,505.12,0,0,1,50.854-2.572,505.2,505.2,0,0,1,50.852,2.572,499.014,499.014,0,0,1,49.384,7.534c16.011,3.279,32.051,7.4,47.667,12.257,15.413,4.8,30.785,10.421,45.693,16.726,14.785,6.257,29.411,13.3,43.475,20.94,14,7.607,27.8,15.99,41.012,24.913,13.138,8.88,26.022,18.514,38.286,28.634,12.214,10.081,24.1,20.883,35.32,32.1,11.184,11.183,21.985,23.066,32.1,35.319s19.74,25.131,28.627,38.288c8.913,13.186,17.295,26.984,24.917,41.011,7.653,14.088,14.7,28.718,20.94,43.474,6.3,14.9,11.93,30.282,16.726,45.7,4.85,15.576,8.971,31.613,12.257,47.664a499.257,499.257,0,0,1,7.537,49.383c1.688,16.646,2.551,33.619,2.565,50.446Zm-186.082-868.765A162.25,162.25,0,0,1-15221.359,4452a162.249,162.249,0,0,1,162.245,162.249,162.247,162.247,0,0,1-162.245,162.246A162.248,162.248,0,0,1-15383.609,4614.247Zm-632.763,0A162.25,162.25,0,0,1-15854.123,4452a162.249,162.249,0,0,1,162.245,162.249,162.246,162.246,0,0,1-162.245,162.246A162.247,162.247,0,0,1-16016.372,4614.247Z" transform="translate(16576.848 -3482.412)" fill="#fff"/>
      <path id="Path_397" data-name="Path 397" d="M20.567,0,836.675,817.513,174.451,871.586c-96.93,0-191.678-63.9-191.678-160.478Z" transform="translate(1047.112 2)" fill="rgba(0,0,0,0.15)"/>
      <path id="Path_398" data-name="Path 398" d="M0,0,816.108,817.513h-640.6C78.577,817.513,0,739.222,0,642.644Z" transform="translate(1067.679 2)" fill="rgba(0,0,0,0.32)"/>
    </g>
  </g>
</svg>
