<svg id="portfolio-training" xmlns="http://www.w3.org/2000/svg" xmlns:xlink="http://www.w3.org/1999/xlink" width="1080" height="1080" viewBox="0 0 1080 1080">
  <defs>
    <linearGradient id="linear-gradient" x1="0.714" y1="0.279" x2="0.197" y2="0.91" gradientUnits="objectBoundingBox">
      <stop offset="0" stop-color="#ffce48"/>
      <stop offset="1" stop-color="#ea8c2f"/>
    </linearGradient>
    <linearGradient id="linear-gradient-2" x1="0.5" x2="0.5" y2="1" gradientUnits="objectBoundingBox">
      <stop offset="0" stop-color="#fff"/>
      <stop offset="1" stop-color="#f2f2f2"/>
    </linearGradient>
    <linearGradient id="linear-gradient-3" x1="0.5" x2="0.5" y2="1" gradientUnits="objectBoundingBox">
      <stop offset="0" stop-color="#26b4ff"/>
      <stop offset="1" stop-color="#2c89ff"/>
    </linearGradient>
  </defs>
  <g id="Group_37" data-name="Group 37">
    <path id="Union_35" data-name="Union 35" d="M-3656,6457a80,80,0,0,1-80-80V5910a80,80,0,0,1,80-80h485q3.293,0,6.517.262,2.957-.259,5.984-.262a67.5,67.5,0,0,1,67.5,67.5v1q0,2.778-.221,5.5.22,2.97.221,5.995v467a80,80,0,0,1-80,80Z" transform="translate(4170 -5686)" fill="url(#linear-gradient)"/>
    <path id="Union_33" data-name="Union 33" d="M-3685,6224a51,51,0,0,1-51-51,51,51,0,0,1,51-51h374a51,51,0,0,1,51,51,51,51,0,0,1-51,51Zm276.01-148.52a123.454,123.454,0,0,1-23.277-7.224,124.127,124.127,0,0,1-21.062-11.433,124.938,124.938,0,0,1-18.352-15.142,124.864,124.864,0,0,1-15.141-18.352,123.962,123.962,0,0,1-11.434-21.062,123.448,123.448,0,0,1-7.224-23.275A124.957,124.957,0,0,1-3508,5954a124.85,124.85,0,0,1,2.518-24.983,123.3,123.3,0,0,1,7.221-23.271,123.916,123.916,0,0,1,11.425-21.058,124.794,124.794,0,0,1,15.133-18.349,124.806,124.806,0,0,1,18.343-15.142,123.924,123.924,0,0,1,21.051-11.436,123.394,123.394,0,0,1,23.265-7.232,124.948,124.948,0,0,1,24.98-2.53v124.351H-3260a124.9,124.9,0,0,1-2.579,24.928,123.447,123.447,0,0,1-7.262,23.215,124,124,0,0,1-11.451,21,124.919,124.919,0,0,1-15.142,18.3,124.91,124.91,0,0,1-18.338,15.1,123.954,123.954,0,0,1-21.037,11.4,123.4,123.4,0,0,1-23.241,7.2A124.865,124.865,0,0,1-3384,6078,124.824,124.824,0,0,1-3408.99,6075.48ZM-3685,6078a51,51,0,0,1-51-51,51,51,0,0,1,51-51h60a51,51,0,0,1,51,51,51,51,0,0,1-51,51Zm0-146a51,51,0,0,1-51-51,51,51,0,0,1,51-51h60a51,51,0,0,1,51,51,51,51,0,0,1-51,51Z" transform="translate(4255 -5569)" fill="url(#linear-gradient-2)"/>
    <path id="Union_23" data-name="Union 23" d="M-186,6443a100,100,0,0,1-100-100v-42a170,170,0,0,1,170-170H37a170,170,0,0,1,170,170v42a100,100,0,0,1-100,100Zm23-487.5c0-69.312,55.068-125.5,123-125.5s123,56.188,123,125.5S27.932,6081-40,6081-163,6024.812-163,5955.5Z" transform="translate(287 -5507)" fill="url(#linear-gradient-3)"/>
  </g>
  <rect id="Rectangle_177" data-name="Rectangle 177" width="1080" height="1080" fill="none"/>
</svg>
