<svg id="portfolio-monitoring" xmlns="http://www.w3.org/2000/svg" xmlns:xlink="http://www.w3.org/1999/xlink" width="1080" height="1080" viewBox="0 0 1080 1080">
  <defs>
    <linearGradient id="linear-gradient" x1="0.596" y1="1.187" x2="0.392" y2="0.204" gradientUnits="objectBoundingBox">
      <stop offset="0" stop-color="#707070"/>
      <stop offset="1" stop-color="#d4d4d4"/>
    </linearGradient>
    <linearGradient id="linear-gradient-2" x1="0.417" y1="1.213" x2="0.224" y2="0.294" gradientUnits="objectBoundingBox">
      <stop offset="0" stop-color="#676767"/>
      <stop offset="1" stop-color="#a2a2a2"/>
    </linearGradient>
    <linearGradient id="linear-gradient-3" x1="0.49" y1="0.152" x2="0.651" y2="1.04" gradientUnits="objectBoundingBox">
      <stop offset="0" stop-color="#d4d4d4"/>
      <stop offset="1" stop-color="#b4b4b4"/>
    </linearGradient>
    <linearGradient id="linear-gradient-4" x1="0.5" y1="-0.039" x2="0.5" y2="1" gradientUnits="objectBoundingBox">
      <stop offset="0" stop-color="#8680d8"/>
      <stop offset="1" stop-color="#5d55ff"/>
    </linearGradient>
    <linearGradient id="linear-gradient-5" x1="0.5" x2="0.5" y2="1" gradientUnits="objectBoundingBox">
      <stop offset="0" stop-color="#e174d0"/>
      <stop offset="1" stop-color="#c139f1"/>
    </linearGradient>
  </defs>
  <rect id="Rectangle_1087" data-name="Rectangle 1087" width="1080" height="1080" fill="none"/>
  <g id="Group_78" data-name="Group 78">
    <circle id="Ellipse_108" data-name="Ellipse 108" cx="369.658" cy="369.658" r="369.658" transform="translate(231.099 107.414)" fill="rgba(255,255,255,0.1)"/>
    <path id="Union_119" data-name="Union 119" d="M9191.993,43.765a82.017,82.017,0,0,1,0-115.989l179.783-179.781a82.018,82.018,0,0,1,115.989,0,82.017,82.017,0,0,1,0,115.989L9307.981,43.765a81.758,81.758,0,0,1-57.993,24.022A81.765,81.765,0,0,1,9191.993,43.765Z" transform="translate(-9157.924 999.165)" fill="url(#linear-gradient)"/>
    <path id="Union_120" data-name="Union 120" d="M9268.938,16.308,9162.285-90.346a81,81,0,0,1,0-114.552l70.78-70.78L9454.271-54.473l-70.78,70.78a80.746,80.746,0,0,1-57.275,23.725A80.746,80.746,0,0,1,9268.938,16.308Z" transform="translate(-9014.594 913.831)" fill="url(#linear-gradient-2)"/>
    <path id="Subtraction_31" data-name="Subtraction 31" d="M8447.977,617.954a471.373,471.373,0,0,1-47.438-2.4,465.114,465.114,0,0,1-46.068-7.031c-14.948-3.059-29.909-6.905-44.465-11.433-14.394-4.477-28.736-9.726-42.628-15.6-13.764-5.821-27.409-12.395-40.56-19.538-13.052-7.09-25.923-14.909-38.254-23.24a466.549,466.549,0,0,1-125.324-125.323c-8.33-12.33-16.149-25.2-23.24-38.255-7.144-13.15-13.717-26.8-19.538-40.558-5.875-13.89-11.124-28.232-15.6-42.628-4.527-14.556-8.374-29.516-11.434-44.465a465.176,465.176,0,0,1-7.031-46.069,470.924,470.924,0,0,1,0-94.878,465.176,465.176,0,0,1,7.031-46.069c3.059-14.948,6.906-29.909,11.434-44.465,4.478-14.4,9.727-28.738,15.6-42.628,5.821-13.763,12.395-27.409,19.538-40.558,7.091-13.054,14.911-25.925,23.24-38.255A466.549,466.549,0,0,1,8188.563-230.76c12.332-8.331,25.2-16.15,38.254-23.24,13.15-7.143,26.8-13.717,40.56-19.538,13.893-5.876,28.234-11.126,42.628-15.6,14.556-4.528,29.516-8.374,44.465-11.433a465.1,465.1,0,0,1,46.068-7.031,470.93,470.93,0,0,1,94.877,0,465.165,465.165,0,0,1,46.069,7.031c14.95,3.059,29.911,6.906,44.465,11.433,14.4,4.478,28.738,9.727,42.628,15.6,13.763,5.821,27.409,12.395,40.559,19.538,13.059,7.094,25.929,14.913,38.255,23.24a466.52,466.52,0,0,1,125.323,125.323c8.33,12.331,16.149,25.2,23.24,38.255,7.141,13.145,13.714,26.791,19.538,40.558,5.878,13.9,11.128,28.242,15.6,42.628,4.528,14.559,8.374,29.519,11.433,44.465a465.064,465.064,0,0,1,7.031,46.069,470.924,470.924,0,0,1,0,94.878,465.064,465.064,0,0,1-7.031,46.069c-3.059,14.946-6.9,29.906-11.433,44.465-4.475,14.386-9.724,28.728-15.6,42.628-5.823,13.767-12.4,27.412-19.538,40.558-7.091,13.054-14.91,25.924-23.24,38.255a466.519,466.519,0,0,1-125.323,125.323c-12.326,8.327-25.2,16.147-38.255,23.24-13.149,7.143-26.8,13.717-40.559,19.538-13.89,5.875-28.231,11.124-42.628,15.6-14.555,4.527-29.515,8.374-44.465,11.433a465.165,465.165,0,0,1-46.069,7.031A471.373,471.373,0,0,1,8447.977,617.954Zm0-832.807c-203.83,0-369.658,165.828-369.658,369.659s165.828,369.657,369.658,369.657,369.659-165.828,369.659-369.657S8651.808-214.853,8447.977-214.853Z" transform="translate(-7847.22 322.266)" fill="url(#linear-gradient-3)"/>
    <rect id="Rectangle_1381" data-name="Rectangle 1381" width="129" height="198" rx="38" transform="translate(367 464)" fill="url(#linear-gradient-4)"/>
    <rect id="Rectangle_1382" data-name="Rectangle 1382" width="129" height="413" rx="38" transform="translate(536 249)" fill="url(#linear-gradient-5)"/>
    <rect id="Rectangle_1383" data-name="Rectangle 1383" width="129" height="278" rx="38" transform="translate(705 384)" fill="url(#linear-gradient-4)"/>
  </g>
</svg>
