<svg id="portfolio-dosbing" xmlns="http://www.w3.org/2000/svg" xmlns:xlink="http://www.w3.org/1999/xlink" width="1080" height="1080" viewBox="0 0 1080 1080">
  <defs>
    <linearGradient id="linear-gradient" x1="0.077" y1="-0.237" x2="0.5" y2="1" gradientUnits="objectBoundingBox">
      <stop offset="0" stop-color="#ffc108"/>
      <stop offset="1" stop-color="#fb8b02"/>
    </linearGradient>
    <linearGradient id="linear-gradient-2" x1="0.316" x2="0.794" y2="0.951" gradientUnits="objectBoundingBox">
      <stop offset="0" stop-color="#ffd868"/>
      <stop offset="1" stop-color="#ffce48"/>
    </linearGradient>
  </defs>
  <rect id="Rectangle_177" data-name="Rectangle 177" width="1080" height="1080" fill="none"/>
  <g id="organization">
    <path id="Union_29" data-name="Union 29" d="M89.32,631.757A89.319,89.319,0,0,1,0,542.439C0,414.183,103.971,310.211,232.228,310.211h43.51c128.257,0,232.228,103.972,232.228,232.228a89.318,89.318,0,0,1-89.319,89.318ZM126.734,129.34C126.734,57.908,183.474,0,253.467,0S380.2,57.908,380.2,129.34,323.461,258.68,253.467,258.68,126.734,200.773,126.734,129.34Z" transform="translate(570.034 224.122)" fill="url(#linear-gradient)"/>
    <path id="Intersection_86" data-name="Intersection 86" d="M-7149.649-7077.015a89.319,89.319,0,0,1-89.318-89.318,231.34,231.34,0,0,1,56.25-151.537,258.919,258.919,0,0,1,57.676,163.309v43.105a99.819,99.819,0,0,1-6.089,34.441Z" transform="translate(7811 7932.894)" fill="rgba(0,0,0,0.24)"/>
    <path id="Union_380" data-name="Union 380" d="M100,792A100,100,0,0,1,0,692V648.893c0-143.593,116.405-260,260-260H376.959c143.593,0,260,116.405,260,260V692a100,100,0,0,1-100,100Zm58.918-629.854C158.917,72.6,230.066,0,317.834,0S476.751,72.6,476.751,162.147,405.6,324.293,317.834,324.293,158.917,251.7,158.917,162.147Z" transform="translate(2 144)" fill="url(#linear-gradient-2)"/>
  </g>
</svg>
