<svg id="profile" xmlns="http://www.w3.org/2000/svg" xmlns:xlink="http://www.w3.org/1999/xlink" width="1080" height="1080" viewBox="0 0 1080 1080">
  <defs>
    <linearGradient id="linear-gradient" x1="0.821" y1="0.046" x2="0.145" y2="0.906" gradientUnits="objectBoundingBox">
      <stop offset="0" stop-color="#26b4ff"/>
      <stop offset="1" stop-color="#1878f2"/>
    </linearGradient>
    <linearGradient id="linear-gradient-2" x1="0.5" x2="0.5" y2="1" gradientUnits="objectBoundingBox">
      <stop offset="0" stop-color="#f2f2f2"/>
      <stop offset="1" stop-color="#fff"/>
    </linearGradient>
  </defs>
  <rect id="Rectangle_177" data-name="Rectangle 177" width="1080" height="1080" fill="none"/>
  <g id="Group_52" data-name="Group 52" transform="translate(2 2)">
    <ellipse id="Ellipse_1" data-name="Ellipse 1" cx="538" cy="538" rx="538" ry="538" fill="url(#linear-gradient)"/>
    <path id="Intersection_1" data-name="Intersection 1" d="M.016,560.88a170.024,170.024,0,0,1,168.6-148.108H502.09a170.025,170.025,0,0,1,168.6,148.108c-77.479,100.2-198.877,164.73-335.338,164.73S77.5,661.081.016,560.88ZM168.073,171.626C168.073,76.84,242.968,0,335.354,0S502.637,76.84,502.637,171.626s-74.9,171.626-167.282,171.626S168.073,266.414,168.073,171.626Z" transform="translate(202.645 226.48)" fill="url(#linear-gradient-2)"/>
  </g>
</svg>
