<svg width="1080" height="1080" viewBox="0 0 1080 1080" fill="none" xmlns="http://www.w3.org/2000/svg">
<path d="M2 784C2 739.817 37.8172 704 82 704H271V1078H82C37.8172 1078 2 1042.18 2 998V784Z" fill="#038C00"/>
<path d="M271 550C271 505.817 306.817 470 351 470H540V1078H271V550Z" fill="#05AB01"/>
<path d="M540 316C540 271.817 575.817 236 620 236H809V1078H540V316Z" fill="#05C300"/>
<path d="M809 82C809 37.8172 844.817 2 889 2H998C1042.18 2 1078 37.8172 1078 82V998C1078 1042.18 1042.18 1078 998 1078H809V82Z" fill="#06DB00"/>
</svg>
