<svg id="riwayat-jabatan" xmlns="http://www.w3.org/2000/svg" xmlns:xlink="http://www.w3.org/1999/xlink" width="1080" height="1080" viewBox="0 0 1080 1080">
  <defs>
    <linearGradient id="linear-gradient" x1="0.533" y1="0.286" x2="0.391" y2="1.046" gradientUnits="objectBoundingBox">
      <stop offset="0" stop-color="#26b4ff"/>
      <stop offset="1" stop-color="#2c89ff"/>
    </linearGradient>
    <linearGradient id="linear-gradient-2" x1="0.036" y1="0.415" x2="0.922" y2="0.79" gradientUnits="objectBoundingBox">
      <stop offset="0" stop-color="#2c89ff"/>
      <stop offset="1" stop-color="#2a98ff"/>
    </linearGradient>
  </defs>
  <rect id="Rectangle_177" data-name="Rectangle 177" width="1080" height="1080" fill="none"/>
  <g id="Group_218" data-name="Group 218">
    <circle id="Ellipse_158" data-name="Ellipse 158" cx="538" cy="538" r="538" transform="translate(2 2)" fill="url(#linear-gradient)"/>
    <path id="Intersection_24" data-name="Intersection 24" d="M-4361-6634c0-154.767,65.355-294.275,169.967-392.425l690.608,823.034A535.6,535.6,0,0,1-3823-6096C-4120.13-6096-4361-6336.873-4361-6634Z" transform="translate(4363 7174.002)" fill="url(#linear-gradient-2)"/>
    <circle id="Ellipse_154" data-name="Ellipse 154" cx="394.5" cy="394.5" r="394.5" transform="translate(146 146)" fill="#0872ae"/>
    <path id="Subtraction_170" data-name="Subtraction 170" d="M242.48-8063.569h0A398.935,398.935,0,0,0,247-8123.5C247-8341.028,70.028-8518-147.5-8518a393.742,393.742,0,0,0-128.334,21.346,392.893,392.893,0,0,0-110.688,59.288,395.94,395.94,0,0,0-85.92,90.106,392.212,392.212,0,0,0-54.03,113.8,393.071,393.071,0,0,1,16.95-68.759,393.606,393.606,0,0,1,28.4-63.425,396.505,396.505,0,0,1,38.664-56.908,398.084,398.084,0,0,1,47.749-49.211,396.818,396.818,0,0,1,55.652-40.331,393.985,393.985,0,0,1,62.374-30.271,392.7,392.7,0,0,1,67.914-19.029c11.736-2.173,23.736-3.832,35.665-4.93,12.093-1.112,24.409-1.676,36.608-1.676a400.846,400.846,0,0,1,40.335,2.037,395.542,395.542,0,0,1,39.17,5.978A392.523,392.523,0,0,1,17.057-8537a394.486,394.486,0,0,1,67.011,36.372,397.415,397.415,0,0,1,58.385,48.172,397.431,397.431,0,0,1,48.172,58.385A394.564,394.564,0,0,1,227-8327.057a392.471,392.471,0,0,1,22.987,74.051,395.5,395.5,0,0,1,5.978,39.17A400.856,400.856,0,0,1,258-8173.5,395.123,395.123,0,0,1,242.48-8063.569Z" transform="translate(677 8714)" fill="rgba(0,0,0,0.15)"/>
    <path id="Union_355" data-name="Union 355" d="M-3007.075-7069.585l-41.541-254.569c-4.754-29.13,27.32-50.067,52.073-33.992l291,188.977c24.755,16.075,18.674,53.892-9.872,61.4l-249.456,65.594a34.113,34.113,0,0,1-8.68,1.128A34.02,34.02,0,0,1-3007.075-7069.585Z" transform="translate(3099.473 7409.803)" fill="#fd0"/>
    <path id="Union_597" data-name="Union 597" d="M-3007.075-7069.585l-41.541-254.569c-4.754-29.13,27.32-50.067,52.073-33.992l291,188.977c24.755,16.075,18.674,53.892-9.872,61.4l-249.456,65.594a34.113,34.113,0,0,1-8.68,1.128A34.02,34.02,0,0,1-3007.075-7069.585Z" transform="translate(3110.473 7444.803)" fill="rgba(0,0,0,0.15)"/>
    <path id="Union_596" data-name="Union 596" d="M-3007.075-7069.585l-41.541-254.569c-4.754-29.13,27.32-50.067,52.073-33.992l291,188.977c24.755,16.075,18.674,53.892-9.872,61.4l-249.456,65.594a34.113,34.113,0,0,1-8.68,1.128A34.02,34.02,0,0,1-3007.075-7069.585Z" transform="translate(3099.473 7409.803)" fill="#26b4ff"/>
    <path id="Union_747" data-name="Union 747" d="M-1959.963-18634.822H-2171.93a43.071,43.071,0,0,1-43.072-43.072,43.073,43.073,0,0,1,43.072-43.072h211.967a58.524,58.524,0,0,1,34.68-15.428l102.662-118.1a43.074,43.074,0,0,1,60.764-4.254,43.074,43.074,0,0,1,4.249,60.764l-103.7,119.291q0,.258,0,.516c0,.1,0,.188,0,.281s0,.188,0,.281a58.728,58.728,0,0,1-58.731,58.451A58.523,58.523,0,0,1-1959.963-18634.822Z" transform="translate(2464.904 19267.523)" fill="rgba(0,0,0,0.24)"/>
    <path id="Union_746" data-name="Union 746" d="M-1959.963-18634.822H-2171.93a43.071,43.071,0,0,1-43.072-43.072,43.073,43.073,0,0,1,43.072-43.072h211.967a58.524,58.524,0,0,1,34.68-15.428l102.662-118.1a43.074,43.074,0,0,1,60.764-4.254,43.074,43.074,0,0,1,4.249,60.764l-103.7,119.291q0,.258,0,.516c0,.1,0,.188,0,.281s0,.188,0,.281a58.728,58.728,0,0,1-58.731,58.451A58.523,58.523,0,0,1-1959.963-18634.822Z" transform="translate(2464.905 19237.523)" fill="#fff"/>
  </g>
</svg>
