<svg id="scholarship-parent" xmlns="http://www.w3.org/2000/svg" xmlns:xlink="http://www.w3.org/1999/xlink" width="1080" height="1080" viewBox="0 0 1080 1080">
  <defs>
    <linearGradient id="linear-gradient" x1="0.187" y1="0.054" x2="1.081" y2="0.907" gradientUnits="objectBoundingBox">
      <stop offset="0" stop-color="#ffce48"/>
      <stop offset="1" stop-color="#e36013"/>
    </linearGradient>
    <linearGradient id="linear-gradient-2" x1="0.66" y1="0.053" x2="0.335" y2="0.948" gradientUnits="objectBoundingBox">
      <stop offset="0" stop-color="#26b4ff"/>
      <stop offset="1" stop-color="#1878f2"/>
    </linearGradient>
    <linearGradient id="linear-gradient-3" x1="0.5" x2="0.5" y2="1" gradientUnits="objectBoundingBox">
      <stop offset="0" stop-color="#005f7a"/>
      <stop offset="1" stop-color="#00303d"/>
    </linearGradient>
  </defs>
  <g id="Group_125" data-name="Group 125">
    <path id="Union_23" data-name="Union 23" d="M100,792A100,100,0,0,1,0,692V558.894a170,170,0,0,1,170-170H466.96a170,170,0,0,1,170,170V692a100,100,0,0,1-100,100Zm58.917-629.853C158.917,72.6,230.066,0,317.834,0S476.751,72.6,476.751,162.147,405.6,324.293,317.834,324.293,158.917,251.7,158.917,162.147Z" transform="translate(2 2)" fill="url(#linear-gradient)"/>
    <g id="Group_124" data-name="Group 124" transform="translate(355.617 467.34)">
      <ellipse id="Ellipse_132" data-name="Ellipse 132" cx="301" cy="305.5" rx="301" ry="305.5" transform="translate(122.383 1.66)" fill="url(#linear-gradient-2)"/>
      <path id="Union_214" data-name="Union 214" d="M190.955,340.97V87.391h43.4v24.8c10.23-14.57,30.07-27.59,56.73-27.59,44.021,0,78.43,34.41,78.43,88.04s-34.41,89.28-78.43,89.28c-26.969,0-46.19-13.33-56.73-27.28V340.97Zm43.4-167.71c0,32.55,22.01,50.53,45.26,50.53,23.56,0,45.57-18.6,45.57-51.15s-22.01-49.91-45.57-49.91C256.365,122.73,234.355,140.711,234.355,173.261ZM115.748,259.254l-47.74-84.319H47.548v84.319H4.148V42.874h81.22c52.079,0,78.12,30.07,78.12,66.34,0,26.35-14.57,53.01-49.29,62.311l51.77,87.729Zm-68.2-116.869h36.27c24.18,0,35.031-12.71,35.031-32.24,0-19.22-10.85-31.31-35.031-31.31H47.548Z" transform="translate(249.297 136.229)" fill="#fff" stroke="rgba(0,0,0,0)" stroke-miterlimit="10" stroke-width="1"/>
    </g>
    <path id="Union_212" data-name="Union 212" d="M19705.229-7204.467a65.008,65.008,0,0,1-20.768-14,65.028,65.028,0,0,1-14-20.767,64.764,64.764,0,0,1-3.709-11.765h-53.506a64.692,64.692,0,0,1-3.709,11.765,65.038,65.038,0,0,1-14,20.767,65.111,65.111,0,0,1-20.771,14,64.9,64.9,0,0,1-25.434,5.137,64.927,64.927,0,0,1-25.432-5.137,65.005,65.005,0,0,1-20.762-14,65.077,65.077,0,0,1-14.006-20.767,64.989,64.989,0,0,1-5.131-25.432,65.006,65.006,0,0,1,5.131-25.432,65.074,65.074,0,0,1,14.006-20.767,64.953,64.953,0,0,1,20.762-14,64.927,64.927,0,0,1,25.432-5.137,64.9,64.9,0,0,1,25.434,5.137,65.1,65.1,0,0,1,20.771,14,65.089,65.089,0,0,1,14,20.767,64.732,64.732,0,0,1,3.779,12.1h53.365a64.709,64.709,0,0,1,3.779-12.1,65.025,65.025,0,0,1,14-20.767,64.956,64.956,0,0,1,20.768-14,64.885,64.885,0,0,1,25.432-5.137,64.927,64.927,0,0,1,25.432,5.137,65.188,65.188,0,0,1,20.771,14,65.121,65.121,0,0,1,14,20.767,64.891,64.891,0,0,1,5.139,25.432,64.874,64.874,0,0,1-5.139,25.432,65.07,65.07,0,0,1-14,20.767,65.2,65.2,0,0,1-20.771,14,64.927,64.927,0,0,1-25.432,5.137A64.884,64.884,0,0,1,19705.229-7204.467Zm-16.018-59.494a42.2,42.2,0,0,0,42.154,42.155,42.2,42.2,0,0,0,42.15-42.155,42.2,42.2,0,0,0-42.15-42.155A42.2,42.2,0,0,0,19689.211-7263.961Zm-181.322,0a42.2,42.2,0,0,0,42.15,42.155,42.2,42.2,0,0,0,42.154-42.155,42.2,42.2,0,0,0-42.154-42.155A42.2,42.2,0,0,0,19507.889-7263.961Z" transform="translate(-19319.523 7378.001)" fill="url(#linear-gradient-3)"/>
  </g>
  <rect id="Rectangle_177" data-name="Rectangle 177" width="1080" height="1080" fill="none"/>
</svg>
