<svg id="scholarship-account" xmlns="http://www.w3.org/2000/svg" xmlns:xlink="http://www.w3.org/1999/xlink" width="1080" height="1080" viewBox="0 0 1080 1080">
  <defs>
    <linearGradient id="linear-gradient" x1="0.432" y1="0.37" x2="1.127" y2="-0.103" gradientUnits="objectBoundingBox">
      <stop offset="0" stop-color="#b55f08"/>
      <stop offset="1" stop-color="#fccb3c"/>
    </linearGradient>
    <linearGradient id="linear-gradient-2" x1="0.381" y1="0.417" x2="0.432" y2="0.214" gradientUnits="objectBoundingBox">
      <stop offset="0" stop-color="#d4d4d4"/>
      <stop offset="1" stop-color="#f5f5f5"/>
    </linearGradient>
    <linearGradient id="linear-gradient-3" x1="0.129" y1="1" x2="0.623" gradientUnits="objectBoundingBox">
      <stop offset="0" stop-color="#d98500"/>
      <stop offset="1" stop-color="#ffce48"/>
    </linearGradient>
    <linearGradient id="linear-gradient-4" x1="0.5" x2="0.5" y2="1" gradientUnits="objectBoundingBox">
      <stop offset="0" stop-color="#d98500"/>
      <stop offset="1" stop-color="#b55f08"/>
    </linearGradient>
    <linearGradient id="linear-gradient-5" x1="0.302" y1="0.198" x2="1" y2="1.631" gradientUnits="objectBoundingBox">
      <stop offset="0" stop-color="#ffce48"/>
      <stop offset="1" stop-color="#e36013"/>
    </linearGradient>
  </defs>
  <g id="Group_115" data-name="Group 115">
    <path id="Union_201" data-name="Union 201" d="M17253.014-5643.6l-45.518-214.157a113,113,0,0,1,87.037-134.027l680.844-144.715a113,113,0,0,1,134.023,87.037l45.518,214.157a113,113,0,0,1-87.037,134.023l-680.84,144.715a113.547,113.547,0,0,1-23.609,2.493A113.028,113.028,0,0,1,17253.014-5643.6Z" transform="translate(-17199 6287.075)" fill="url(#linear-gradient)"/>
    <path id="Union_200" data-name="Union 200" d="M17526.115-5276.95l-300.395-300.395a59,59,0,0,1,0-83.441l457.492-457.5a59,59,0,0,1,83.441,0l300.395,300.395a59.006,59.006,0,0,1,0,83.441l-457.5,457.5a58.812,58.812,0,0,1-41.719,17.281A58.811,58.811,0,0,1,17526.115-5276.95Z" transform="translate(-17206.438 6137.563)" fill="url(#linear-gradient-2)"/>
    <path id="Union_186" data-name="Union 186" d="M6949-4244a113,113,0,0,1-113-113v-520a113,113,0,0,1,113-113h761a113,113,0,0,1,113,113v520a113,113,0,0,1-113,113Z" transform="translate(-6834 5322)" fill="url(#linear-gradient-3)"/>
    <path id="Union_199" data-name="Union 199" d="M17266-5900.591a82,82,0,0,1-82-82V-6078a82,82,0,0,1,82-82h428a82,82,0,0,1,82,82v95.407a82,82,0,0,1-82,82Z" transform="translate(-16698 6722.796)" fill="url(#linear-gradient-4)"/>
    <circle id="Ellipse_132" data-name="Ellipse 132" cx="61" cy="61" r="61" transform="translate(890 632)" fill="url(#linear-gradient-5)"/>
  </g>
  <rect id="Rectangle_177" data-name="Rectangle 177" width="1080" height="1080" fill="none"/>
</svg>
