<svg id="scholarship-message" xmlns="http://www.w3.org/2000/svg" xmlns:xlink="http://www.w3.org/1999/xlink" width="1080" height="1080" viewBox="0 0 1080 1080">
  <defs>
    <linearGradient id="linear-gradient" x1="0.5" y1="1" x2="0.5" y2="0.361" gradientUnits="objectBoundingBox">
      <stop offset="0" stop-color="#e5b427"/>
      <stop offset="1" stop-color="#b55f08"/>
    </linearGradient>
    <linearGradient id="linear-gradient-2" x1="-0.961" y1="0.5" x2="0.973" y2="0.5" gradientUnits="objectBoundingBox">
      <stop offset="0" stop-color="#ffd868"/>
      <stop offset="1" stop-color="#b55f08"/>
    </linearGradient>
    <linearGradient id="linear-gradient-3" x1="0.643" y1="0.5" x2="0.075" y2="0.5" gradientUnits="objectBoundingBox">
      <stop offset="0" stop-color="#ffce48"/>
      <stop offset="1" stop-color="#ffd868"/>
    </linearGradient>
    <linearGradient id="linear-gradient-4" x1="0.5" y1="0.217" x2="0.5" y2="1" gradientUnits="objectBoundingBox">
      <stop offset="0" stop-color="#fff"/>
      <stop offset="1" stop-color="#d4d4d4"/>
    </linearGradient>
  </defs>
  <g id="Group_53" data-name="Group 53">
    <path id="Union_12" data-name="Union 12" d="M-2506-2723a80,80,0,0,1-80-80v-632a80,80,0,0,1,80-80h920a80,80,0,0,1,80,80v632a80,80,0,0,1-80,80Z" transform="translate(2586 3659.001)" fill="url(#linear-gradient)"/>
    <path id="Union_77" data-name="Union 77" d="M0,1016.5V63.868C0,1.6,80.7-22.923,115.349,28.815L434.292,505.133a63,63,0,0,1,0,70.1L115.349,1051.556c-12.979,19.383-32.427,28.063-51.67,28.064C31.557,1079.622,0,1055.443,0,1016.5Z" transform="translate(0 935.999) rotate(-90)" fill="url(#linear-gradient-2)"/>
    <path id="Union_75" data-name="Union 75" d="M0,988.3V35.658C0-26.609,80.7-51.134,115.349.606L434.293,476.929a63,63,0,0,1,0,70.1L115.349,1023.357c-12.979,19.383-32.427,28.063-51.67,28.064C31.557,1051.423,0,1027.244,0,988.3Z" transform="translate(1052.173 144) rotate(90)" fill="url(#linear-gradient-3)"/>
    <path id="Union_15" data-name="Union 15" d="M2083,8313a69,69,0,0,1,0-138h19a69,69,0,0,1,0,138Z" transform="translate(-1553 -7704)" fill="url(#linear-gradient-4)"/>
  </g>
  <rect id="Rectangle_177" data-name="Rectangle 177" width="1080" height="1080" fill="none"/>
</svg>
