<svg id="scholarship-donatur" xmlns="http://www.w3.org/2000/svg" xmlns:xlink="http://www.w3.org/1999/xlink" width="1080" height="1080" viewBox="0 0 1080 1080">
  <defs>
    <linearGradient id="linear-gradient" x1="0.5" x2="0.5" y2="1" gradientUnits="objectBoundingBox">
      <stop offset="0" stop-color="#ffd868"/>
      <stop offset="1" stop-color="#f3ba1d"/>
    </linearGradient>
    <linearGradient id="linear-gradient-2" x1="0.408" y1="0.705" x2="0.777" y2="0.077" gradientUnits="objectBoundingBox">
      <stop offset="0" stop-color="#30c455"/>
      <stop offset="1" stop-color="#65d781"/>
    </linearGradient>
  </defs>
  <g id="Group_183" data-name="Group 183">
    <path id="Subtraction_92" data-name="Subtraction 92" d="M8407.671,9143.592a128.4,128.4,0,0,1-74.849-24.091,132.839,132.839,0,0,1-20.911-18.657,134.643,134.643,0,0,1-27.225-45.469,137.4,137.4,0,0,1-6.337-25.151,138.694,138.694,0,0,1,1.745-51.313,136.866,136.866,0,0,1,8.03-24.636,133.948,133.948,0,0,1,30.248-43.41L8517.057,8720.6a130.61,130.61,0,0,1,34.094-23.624,127.749,127.749,0,0,1,38.137-11.352,46.48,46.48,0,0,1,13.479-1.987h270.212a46.445,46.445,0,0,1,6.187,92.475H8727.081a35.416,35.416,0,0,0,0,70.832H8974.54c.437,0,.873-.008,1.3-.023h58.115c1.571,0,3.178.064,4.774.19L9280.762,8647.7a67.855,67.855,0,0,1,9.217-7.374,62.022,62.022,0,0,1,9.787-5.315,54.742,54.742,0,0,1,9.981-3.219,46.374,46.374,0,0,1,9.8-1.081,36.484,36.484,0,0,1,13.777,2.561,30.12,30.12,0,0,1,11.158,7.776,31.531,31.531,0,0,1,7.258,14.124,42.109,42.109,0,0,1,.3,16.9,56.722,56.722,0,0,1-6.3,17.587,66.939,66.939,0,0,1-12.539,16.19l-251.509,239.567c-1.153,1.1-2.358,2.167-3.58,3.18a59.18,59.18,0,0,1-19.542,14.5,58.67,58.67,0,0,1-11.82,3.973,59.337,59.337,0,0,1-12.792,1.391H8642.078l-145.167,139.016A128.6,128.6,0,0,1,8407.671,9143.592Z" transform="translate(-8274.748 -8065.592)" fill="url(#linear-gradient)"/>
    <path id="Union_39" data-name="Union 39" d="M-6892.959,6390.385c-.392,1.788-.547,2.738-.547,2.738v-5.106c-5.366-22.18-33.509-112.148-148.6-181.593-48.726-29.4-80.511-52.777-98.915-79.182-27.724-31.433-44.978-75.57-44.978-124.448,0-95.43,65.763-172.793,146.885-172.793a126.953,126.953,0,0,1,48.188,9.512c49.313,13.3,92.657,42.573,97.97,46.244,5.313-3.671,48.656-32.944,97.972-46.244A126.939,126.939,0,0,1-6746.8,5830c81.122,0,146.885,77.363,146.885,172.793,0,48.878-17.25,93.015-44.978,124.448-18.4,26.4-50.189,49.78-98.915,79.182-115.093,69.445-143.237,159.414-148.6,181.594v5.106S-6892.568,6392.173-6892.959,6390.385Z" transform="translate(7432.959 -5828.001)" fill="url(#linear-gradient-2)"/>
  </g>
  <rect id="Rectangle_299" data-name="Rectangle 299" width="1080" height="1080" fill="none"/>
</svg>
