<svg id="scholarship" xmlns="http://www.w3.org/2000/svg" xmlns:xlink="http://www.w3.org/1999/xlink" width="1080" height="1080" viewBox="0 0 1080 1080">
  <defs>
    <linearGradient id="linear-gradient" x1="0.5" y1="0.273" x2="0.5" y2="1" gradientUnits="objectBoundingBox">
      <stop offset="0" stop-color="#722cff"/>
      <stop offset="1" stop-color="#26b4ff"/>
    </linearGradient>
    <linearGradient id="linear-gradient-2" x1="0.5" x2="0.5" y2="1" gradientUnits="objectBoundingBox">
      <stop offset="0" stop-color="#25b2fe"/>
      <stop offset="1" stop-color="#22a1fb"/>
    </linearGradient>
    <linearGradient id="linear-gradient-3" x1="0.5" x2="0.5" y2="1" gradientUnits="objectBoundingBox">
      <stop offset="0" stop-color="#ffce48"/>
      <stop offset="1" stop-color="#ffeb68"/>
    </linearGradient>
    <linearGradient id="linear-gradient-4" x1="-2.072" y1="1.308" x2="1.123" y2="1" gradientUnits="objectBoundingBox">
      <stop offset="0" stop-color="#ffce48"/>
      <stop offset="1" stop-color="#ffd868"/>
    </linearGradient>
  </defs>
  <g id="cap">
    <path id="Rectangle_156" data-name="Rectangle 156" d="M0,0H625a0,0,0,0,1,0,0V418A295,295,0,0,1,330,713H295A295,295,0,0,1,0,418V0A0,0,0,0,1,0,0Z" transform="translate(228 367)" fill="url(#linear-gradient)"/>
    <path id="Union_16" data-name="Union 16" d="M379.1,694.874-75.5,424.67c-35.384-21.032-45.307-58.892-35.93-91.155,4.82-18.646,16.694-35.966,36.745-47.884l454.6-270.2a80,80,0,0,1,81.751,0l454.6,270.2c35.384,21.031,45.307,58.889,35.93,91.153-4.82,18.646-16.695,35.969-36.746,47.887l-454.6,270.2a80,80,0,0,1-81.75,0Z" transform="translate(120.12 -0.901)" fill="url(#linear-gradient-2)"/>
    <path id="Union_18" data-name="Union 18" d="M2014,7484.394v-272.5h.345L2381.355,7000l62.5,108.255L2139,7284.261v200.133a62.5,62.5,0,1,1-125,0Z" transform="translate(-1869 -6731.544)" fill="url(#linear-gradient-3)"/>
    <rect id="Rectangle_159" data-name="Rectangle 159" width="125" height="122" rx="61" transform="translate(145.196 840.127)" fill="url(#linear-gradient-4)"/>
    <ellipse id="Ellipse_64" data-name="Ellipse 64" cx="102.5" cy="68.5" rx="102.5" ry="68.5" transform="translate(438 255)" fill="#fff"/>
  </g>
  <rect id="Rectangle_177" data-name="Rectangle 177" width="1080" height="1080" fill="none"/>
</svg>
