<svg xmlns="http://www.w3.org/2000/svg" xmlns:xlink="http://www.w3.org/1999/xlink" width="1080.004" height="1080.002" viewBox="0 0 1080.004 1080.002">
  <defs>
    <linearGradient id="linear-gradient" x1="0.75" y1="0.071" x2="0.251" y2="0.931" gradientUnits="objectBoundingBox">
      <stop offset="0" stop-color="#e9e9e9"/>
      <stop offset="1" stop-color="#b4b4b4"/>
    </linearGradient>
  </defs>
  <g id="scholarship-process" transform="translate(0.003)">
    <g id="Group_186" data-name="Group 186">
      <path id="Subtraction_93" data-name="Subtraction 93" d="M4282.226,9688H4175.773a9.211,9.211,0,0,1-5.461-1.77,8.833,8.833,0,0,1-3.328-5.3l-47.258-215.3a334.453,334.453,0,0,1-37.956-15.82L3896.015,9568.7a8.951,8.951,0,0,1-4.874,1.483,9.073,9.073,0,0,1-6.342-2.7l-75.275-75.272a9.214,9.214,0,0,1-2.608-5.115,8.833,8.833,0,0,1,1.4-6.1l119.171-186.2a334.634,334.634,0,0,1-15.4-37.351l-216.012-47.414a8.837,8.837,0,0,1-5.3-3.33,9.194,9.194,0,0,1-1.768-5.462V9094.775a9.227,9.227,0,0,1,1.773-5.462,8.833,8.833,0,0,1,5.3-3.328l216.38-47.5a334.548,334.548,0,0,1,15.308-36.838l-119.451-186.636a8.825,8.825,0,0,1-1.393-6.135,9.2,9.2,0,0,1,2.65-5.124l75.231-75.231a9.088,9.088,0,0,1,6.343-2.7,8.954,8.954,0,0,1,4.876,1.485l186.637,119.45a334.575,334.575,0,0,1,36.833-15.306l47.5-216.384a8.832,8.832,0,0,1,3.33-5.3,9.207,9.207,0,0,1,5.463-1.767h106.449a9.218,9.218,0,0,1,5.462,1.771,8.834,8.834,0,0,1,3.33,5.3l47.414,216.008a334.6,334.6,0,0,1,37.351,15.405l186.207-119.174a8.928,8.928,0,0,1,4.873-1.487,9.07,9.07,0,0,1,6.382,2.744l75.231,75.229a9.211,9.211,0,0,1,2.611,5.115,8.84,8.84,0,0,1-1.4,6.105l-118.882,185.747a334.8,334.8,0,0,1,15.824,37.961l215.3,47.258a8.828,8.828,0,0,1,5.321,3.353,9.206,9.206,0,0,1,1.75,5.5v106.392a9.238,9.238,0,0,1-1.771,5.462,8.837,8.837,0,0,1-5.3,3.33L4547,9257.2a334.786,334.786,0,0,1-15.918,38.472l118.607,185.318a8.845,8.845,0,0,1,1.394,6.105,9.189,9.189,0,0,1-2.612,5.113l-75.272,75.272a9.089,9.089,0,0,1-6.343,2.7,8.932,8.932,0,0,1-4.873-1.485l-185.316-118.6A334.592,334.592,0,0,1,4338.2,9466l-47.178,214.931a8.843,8.843,0,0,1-3.33,5.3A9.2,9.2,0,0,1,4282.226,9688ZM4229,8940c-114.691,0-208,93.309-208,208s93.308,208,208,208,208-93.308,208-208S4343.693,8940,4229,8940Z" transform="translate(-3689.002 -8608)" fill="url(#linear-gradient)"/>
      <circle id="Ellipse_204" data-name="Ellipse 204" cx="123" cy="123" r="123" transform="translate(417 417)" fill="url(#linear-gradient)"/>
    </g>
    <rect id="Rectangle_299" data-name="Rectangle 299" width="1080" height="1080" fill="none"/>
  </g>
</svg>
