<svg id="skem-target" xmlns="http://www.w3.org/2000/svg" xmlns:xlink="http://www.w3.org/1999/xlink" width="1080" height="1080" viewBox="0 0 1080 1080">
  <defs>
    <linearGradient id="linear-gradient" x1="-0.099" y1="-0.177" x2="1.528" y2="1.827" gradientUnits="objectBoundingBox">
      <stop offset="0" stop-color="#fccb3c"/>
      <stop offset="1" stop-color="#ea8c2f"/>
    </linearGradient>
    <linearGradient id="linear-gradient-2" x1="0.032" y1="0.085" x2="0.819" y2="0.859" xlink:href="#linear-gradient"/>
  </defs>
  <rect id="Rectangle_177" data-name="Rectangle 177" width="1080" height="1080" fill="none"/>
  <path id="Subtraction_84" data-name="Subtraction 84" d="M8700.169,11770.338a417.486,417.486,0,0,1-42.04-2.123,412.113,412.113,0,0,1-40.825-6.23c-13.253-2.712-26.51-6.121-39.4-10.132-12.761-3.969-25.471-8.621-37.776-13.826a412.361,412.361,0,0,1-218.812-218.812c-5.21-12.318-9.861-25.028-13.826-37.776-4.011-12.894-7.419-26.15-10.132-39.4a412.113,412.113,0,0,1-6.23-40.825,417.285,417.285,0,0,1,0-84.079,412.2,412.2,0,0,1,6.23-40.825c2.713-13.254,6.121-26.512,10.132-39.4,3.966-12.752,8.617-25.462,13.826-37.776a412.357,412.357,0,0,1,218.812-218.812c12.3-5.205,25.015-9.856,37.776-13.826,12.894-4.011,26.15-7.419,39.4-10.132a412.113,412.113,0,0,1,40.825-6.23,417.295,417.295,0,0,1,84.08,0,412,412,0,0,1,40.825,6.23c13.254,2.713,26.512,6.121,39.4,10.132,12.762,3.97,25.472,8.621,37.776,13.826a412.357,412.357,0,0,1,218.812,218.812c5.209,12.314,9.86,25.024,13.826,37.776,4.011,12.892,7.419,26.149,10.132,39.4a412.2,412.2,0,0,1,6.23,40.825,417.285,417.285,0,0,1,0,84.079,412.113,412.113,0,0,1-6.23,40.825c-2.713,13.254-6.121,26.511-10.132,39.4-3.965,12.748-8.616,25.458-13.826,37.776a412.369,412.369,0,0,1-218.812,218.813c-12.306,5.205-25.016,9.857-37.776,13.826-12.893,4.011-26.15,7.42-39.4,10.132a412,412,0,0,1-40.825,6.23A417.515,417.515,0,0,1,8700.169,11770.338Zm.381-707.362c-163.112,0-295.813,132.7-295.813,295.813s132.7,295.813,295.813,295.813,295.813-132.7,295.813-295.813S8863.661,11062.976,8700.55,11062.976Z" transform="translate(-8160.168 -10819.17)" fill="url(#linear-gradient)"/>
  <path id="Union_257" data-name="Union 257" d="M7597,11944v-221a80,80,0,0,1,160,0v221a80,80,0,1,1-160,0Zm317-378a80,80,0,1,1,0-160h221a80,80,0,1,1,0,160Zm-695,0a80,80,0,0,1,0-160h221a80,80,0,1,1,0,160Zm378-317v-221a80,80,0,0,1,160,0v221a80,80,0,0,1-160,0Z" transform="translate(-7136.999 -10946)" fill="url(#linear-gradient-2)"/>
  <rect id="Rectangle_177-2" data-name="Rectangle 177" width="1080" height="1080" fill="none"/>
</svg>
