<svg width="24" height="24" viewBox="0 0 24 24" fill="none" xmlns="http://www.w3.org/2000/svg">
<path d="M7.24443 3.64443C7.24443 1.65621 5.63266 0.0444336 3.64443 0.0444336C1.65621 0.0444336 0.0444336 1.65621 0.0444336 3.64443C0.0444336 5.63266 1.65621 7.24443 3.64443 7.24443C5.63266 7.24443 7.24443 5.63266 7.24443 3.64443Z" fill="url(#paint0_linear_1978_14245)"/>
<path d="M3.102 5.62127C3.00524 5.62419 2.90916 5.60425 2.82155 5.56309C2.73394 5.52193 2.65726 5.46069 2.59773 5.38436L1.55711 4.05245C1.50679 3.98865 1.46957 3.91555 1.44758 3.83733C1.42559 3.75911 1.41927 3.67731 1.42898 3.59664C1.4387 3.51597 1.46426 3.43801 1.50419 3.36725C1.54412 3.29648 1.59763 3.2343 1.66166 3.18427C1.72568 3.13425 1.79897 3.09737 1.87729 3.07574C1.95561 3.05412 2.03743 3.04819 2.11806 3.05828C2.19868 3.06837 2.27653 3.09428 2.3471 3.13454C2.41768 3.1748 2.47961 3.22861 2.52933 3.29288L3.10206 4.02592L4.75952 1.90452C4.86054 1.77646 5.00816 1.69361 5.1701 1.6741C5.33204 1.6546 5.49511 1.70004 5.62365 1.80046C5.75218 1.90088 5.83571 2.04812 5.85597 2.20997C5.87623 2.37181 5.83156 2.53509 5.73174 2.66409L3.6064 5.38442C3.54872 5.45839 3.47491 5.5182 3.39059 5.55929C3.30628 5.60039 3.21369 5.62168 3.11989 5.62154C3.11391 5.62152 3.10795 5.62143 3.102 5.62127Z" fill="white"/>
<path d="M7.24443 12C7.24443 10.0118 5.63266 8.40002 3.64443 8.40002C1.65621 8.40002 0.0444336 10.0118 0.0444336 12C0.0444336 13.9883 1.65621 15.6 3.64443 15.6C5.63266 15.6 7.24443 13.9883 7.24443 12Z" fill="url(#paint1_linear_1978_14245)"/>
<path d="M7.24443 20.3555C7.24443 18.3673 5.63266 16.7555 3.64443 16.7555C1.65621 16.7555 0.0444336 18.3673 0.0444336 20.3555C0.0444336 22.3437 1.65621 23.9555 3.64443 23.9555C5.63266 23.9555 7.24443 22.3437 7.24443 20.3555Z" fill="url(#paint2_linear_1978_14245)"/>
<path d="M21.7 1.40002H11.1889C9.9432 1.40002 8.93335 2.40987 8.93335 3.65558C8.93335 4.90129 9.9432 5.91114 11.1889 5.91114H21.7C22.9457 5.91114 23.9556 4.90129 23.9556 3.65558C23.9556 2.40987 22.9457 1.40002 21.7 1.40002Z" fill="url(#paint3_linear_1978_14245)"/>
<path d="M21.7 9.75549H11.1889C9.9432 9.75549 8.93335 10.7653 8.93335 12.011C8.93335 13.2568 9.9432 14.2666 11.1889 14.2666H21.7C22.9457 14.2666 23.9556 13.2568 23.9556 12.011C23.9556 10.7653 22.9457 9.75549 21.7 9.75549Z" fill="url(#paint4_linear_1978_14245)"/>
<path d="M21.7 18.1111H11.1889C9.9432 18.1111 8.93335 19.1209 8.93335 20.3666C8.93335 21.6123 9.9432 22.6222 11.1889 22.6222H21.7C22.9457 22.6222 23.9556 21.6123 23.9556 20.3666C23.9556 19.1209 22.9457 18.1111 21.7 18.1111Z" fill="url(#paint5_linear_1978_14245)"/>
<defs>
<linearGradient id="paint0_linear_1978_14245" x1="3.64443" y1="0.0444335" x2="0.0444335" y2="9.83643" gradientUnits="userSpaceOnUse">
<stop stop-color="#26B4FF"/>
<stop offset="1" stop-color="#1878F2"/>
</linearGradient>
<linearGradient id="paint1_linear_1978_14245" x1="8.59083" y1="10.1208" x2="5.53803" y2="14.5848" gradientUnits="userSpaceOnUse">
<stop stop-color="#D4D4D4"/>
<stop offset="1" stop-color="#D2D2D2"/>
</linearGradient>
<linearGradient id="paint2_linear_1978_14245" x1="8.59083" y1="18.4763" x2="5.53803" y2="22.9403" gradientUnits="userSpaceOnUse">
<stop stop-color="#D4D4D4"/>
<stop offset="1" stop-color="#D2D2D2"/>
</linearGradient>
<linearGradient id="paint3_linear_1978_14245" x1="16.4445" y1="1.40002" x2="15.6848" y2="8.28052" gradientUnits="userSpaceOnUse">
<stop stop-color="#26B4FF"/>
<stop offset="1" stop-color="#1878F2"/>
</linearGradient>
<linearGradient id="paint4_linear_1978_14245" x1="26.7647" y1="10.8336" x2="25.9558" y2="14.7725" gradientUnits="userSpaceOnUse">
<stop stop-color="#D4D4D4"/>
<stop offset="1" stop-color="#D2D2D2"/>
</linearGradient>
<linearGradient id="paint5_linear_1978_14245" x1="26.7647" y1="19.1892" x2="25.9558" y2="23.1281" gradientUnits="userSpaceOnUse">
<stop stop-color="#D4D4D4"/>
<stop offset="1" stop-color="#D2D2D2"/>
</linearGradient>
</defs>
</svg>
