<svg xmlns="http://www.w3.org/2000/svg" xmlns:xlink="http://www.w3.org/1999/xlink" width="833.317" height="526.243" viewBox="0 0 833.317 526.243">
  <defs>
    <linearGradient id="linear-gradient" x1="0.855" y1="0.337" x2="0.386" y2="0.782" gradientUnits="objectBoundingBox">
      <stop offset="0" stop-color="#fccb3c"/>
      <stop offset="1" stop-color="#ea8c2f"/>
    </linearGradient>
    <linearGradient id="linear-gradient-2" x1="0.451" y1="1.457" x2="-0.066" y2="0.899" xlink:href="#linear-gradient"/>
    <linearGradient id="linear-gradient-3" x1="0.436" y1="0" x2="0.5" y2="1" xlink:href="#linear-gradient"/>
  </defs>
  <g id="welcome" transform="translate(384 -4630.757)">
    <ellipse id="Ellipse_202" data-name="Ellipse 202" cx="95.5" cy="12" rx="95.5" ry="12" transform="translate(-384 5133)" fill="rgba(0,0,0,0.16)"/>
    <path id="Path_6" data-name="Path 6" d="M808.054,287.654H374.044a8.07,8.07,0,0,0-8.07,8.06v204.87a8.079,8.079,0,0,0,8.07,8.07h434.01a8.077,8.077,0,0,0,8.06-8.07V295.714a8.068,8.068,0,0,0-8.06-8.06Z" transform="translate(-599.341 4430.488)" fill="#2b2a36" opacity="0.36"/>
    <path id="Path_7" data-name="Path 7" d="M693.414,386.354a8.068,8.068,0,0,0-8.06,8.06v57.87a8.077,8.077,0,0,0,8.06,8.07h122.7v-74Z" transform="translate(-599.341 4430.488)" fill="#1878f2"/>
    <path id="Path_8" data-name="Path 8" d="M1022.43,460.35H693.418a8.076,8.076,0,0,1-8.066-8.066V394.416a8.075,8.075,0,0,1,8.066-8.066h329.01a8.075,8.075,0,0,1,8.066,8.066v57.868a8.076,8.076,0,0,1-8.064,8.066Z" transform="translate(-599.341 4430.488)" fill="#1878f2" opacity="0.5"/>
    <circle id="Ellipse_4" data-name="Ellipse 4" cx="13.089" cy="13.089" r="13.089" transform="translate(125.482 4844.448)" fill="#fff"/>
    <path id="Path_9" data-name="Path 9" d="M1012.23,423.246H775.72a3.9,3.9,0,1,1,0-7.8h236.514a3.9,3.9,0,0,1,0,7.8Z" transform="translate(-599.341 4430.488)" fill="#fff"/>
    <path id="Path_10" data-name="Path 10" d="M922.4,438.648H775.72a3.9,3.9,0,0,1,0-7.8H922.4a3.9,3.9,0,1,1,0,7.8Z" transform="translate(-599.341 4430.488)" fill="#fff"/>
    <path id="Path_11" data-name="Path 11" d="M151.406,545.537h11.328l5.389-43.693H151.4Z" transform="translate(-409.661 4586.363)" fill="#ffb6b6"/>
    <path id="Path_12" data-name="Path 12" d="M299.858,713.351h3.188l12.448-5.062,6.672,5.062h0a14.217,14.217,0,0,1,14.217,14.216v.463H299.859Z" transform="translate(-561.002 4414.851)" fill="#2f2e41"/>
    <path id="Path_13" data-name="Path 13" d="M49.051,530.809l10.139,5.053,24.314-36.7L68.541,491.7Z" transform="translate(-409.661 4586.363)" fill="#ffb6b6"/>
    <path id="Path_14" data-name="Path 14" d="M199.456,697.722l2.854,1.422,13.4,1.022,3.713,7.506h0a14.218,14.218,0,0,1,6.382,19.066l-.206.413L192.908,710.86Z" transform="translate(-561.002 4414.851)" fill="#2f2e41"/>
    <path id="Path_15" data-name="Path 15" d="M307.766,518.609l-72.026,1.879,1.253,35.073s-1.253,9.395,1.253,11.9,3.758,2.505,2.505,6.889-4.491,46.274-4.491,46.274-29.561,52.27-28.309,53.523,2.505,0,1.253,3.132-2.505,1.879-1.253,3.132a46.129,46.129,0,0,1,3.132,3.758H231.5s1.142-6.263,1.142-6.889,1.253-4.384,1.253-5.01,35.669-38.417,35.669-38.417l7.516-62.631L295.24,632.6s0,53.863,1.253,55.115,1.253.626.626,3.132-3.132,1.879-1.253,3.758,2.505-1.253,1.879,1.879l-.626,3.132,24.063.269s2.505-5.279,1.253-7.158-1.177-1.366.351-4.441,2.155-3.7,1.528-4.327-.626-3.958-.626-3.958-9.031-123.184-9.031-125.063a6.247,6.247,0,0,1,.52-2.818v-2.551l-2.4-9.037Z" transform="translate(-561.002 4414.851)" fill="#2f2e41"/>
    <path id="Path_16" data-name="Path 16" d="M1021.02,409.86a27.638,27.638,0,1,1,27.638-27.638A27.638,27.638,0,0,1,1021.02,409.86Z" transform="translate(-599.341 4430.488)" fill="#f1a634"/>
    <path id="Path_17" data-name="Path 17" d="M1031.93,379.5h-8.179v-8.179a2.726,2.726,0,0,0-5.453,0V379.5h-8.179a2.726,2.726,0,1,0,0,5.453h8.179v8.179a2.726,2.726,0,0,0,5.453,0v-8.179h8.179a2.726,2.726,0,1,0,0-5.453Z" transform="translate(-599.341 4430.488)" fill="#fff"/>
    <path id="Path_18" data-name="Path 18" d="M599.224,460.724H494.214a8.079,8.079,0,0,0-8.07,8.07v39.86h121.14v-39.86a8.077,8.077,0,0,0-8.06-8.07Z" transform="translate(-599.341 4430.488)" fill="#1878f2"/>
    <path id="Path_19" data-name="Path 19" d="M599.221,572.724H494.21a8.076,8.076,0,0,1-8.066-8.066V468.79a8.075,8.075,0,0,1,8.066-8.066H599.221a8.075,8.075,0,0,1,8.066,8.066v95.868a8.076,8.076,0,0,1-8.066,8.066Z" transform="translate(-599.341 4430.488)" fill="#1878f2" opacity="0.5"/>
    <circle id="Ellipse_5" data-name="Ellipse 5" cx="13.089" cy="13.089" r="13.089" transform="translate(-87.282 4910.474)" fill="#fff"/>
    <path id="Path_20" data-name="Path 20" d="M577.472,526.06H515.958a3.9,3.9,0,1,1,0-7.8h61.514a3.9,3.9,0,0,1,0,7.8Z" transform="translate(-599.341 4430.488)" fill="#fff"/>
    <path id="Path_21" data-name="Path 21" d="M545.641,541.462H515.958a3.9,3.9,0,0,1,0-7.8h29.684a3.9,3.9,0,0,1,0,7.8Z" transform="translate(-599.341 4430.488)" fill="#fff"/>
    <path id="Path_22" data-name="Path 22" d="M492.021,600.86a27.638,27.638,0,1,1,27.638-27.638A27.638,27.638,0,0,1,492.021,600.86Z" transform="translate(-599.341 4430.488)" fill="#1878f2"/>
    <path id="Path_23" data-name="Path 23" d="M502.926,570.5h-8.179v-8.179a2.726,2.726,0,1,0-5.453,0V570.5h-8.179a2.726,2.726,0,0,0,0,5.453h8.179v8.179a2.726,2.726,0,1,0,5.453,0v-8.179h8.179a2.726,2.726,0,1,0,0-5.453Z" transform="translate(-599.341 4430.488)" fill="#fff"/>
    <path id="Path_24" data-name="Path 24" d="M479.228,399.779H374.218a8.076,8.076,0,0,1-8.066-8.066V295.845a8.075,8.075,0,0,1,8.066-8.066h105.01a8.075,8.075,0,0,1,8.066,8.066v95.868a8.076,8.076,0,0,1-8.066,8.066Z" transform="translate(-599.341 4430.488)" fill="#1878f2"/>
    <circle id="Ellipse_6" data-name="Ellipse 6" cx="13.089" cy="13.089" r="13.089" transform="translate(-207.274 4745.529)" fill="#1878f2"/>
    <path id="Path_25" data-name="Path 25" d="M457.48,357.115H395.966a3.9,3.9,0,1,1,0-7.8H457.48a3.9,3.9,0,0,1,0,7.8Z" transform="translate(-599.341 4430.488)" fill="#1878f2"/>
    <path id="Path_26" data-name="Path 26" d="M425.649,372.517H395.966a3.9,3.9,0,1,1,0-7.8H425.65a3.9,3.9,0,0,1,0,7.8Z" transform="translate(-599.341 4430.488)" fill="#1878f2"/>
    <path id="Path_27" data-name="Path 27" d="M479.228,399.779H374.218a8.076,8.076,0,0,1-8.066-8.066V295.845a8.075,8.075,0,0,1,8.066-8.066h105.01a8.075,8.075,0,0,1,8.066,8.066v95.868a8.076,8.076,0,0,1-8.066,8.066Z" transform="translate(-599.341 4430.488)" fill="#1878f2" opacity="0.5"/>
    <circle id="Ellipse_7" data-name="Ellipse 7" cx="13.089" cy="13.089" r="13.089" transform="translate(-207.274 4745.529)" fill="#fff"/>
    <path id="Path_28" data-name="Path 28" d="M457.48,357.115H395.966a3.9,3.9,0,1,1,0-7.8H457.48a3.9,3.9,0,0,1,0,7.8Z" transform="translate(-599.341 4430.488)" fill="#fff"/>
    <path id="Path_29" data-name="Path 29" d="M425.649,372.517H395.966a3.9,3.9,0,1,1,0-7.8H425.65a3.9,3.9,0,0,1,0,7.8Z" transform="translate(-599.341 4430.488)" fill="#fff"/>
    <circle id="Ellipse_8" data-name="Ellipse 8" cx="21" cy="21" r="21" transform="translate(-243.957 4696.951)" fill="#f6b638"/>
    <path id="Path_31" data-name="Path 31" d="M371.9,343.088a9.771,9.771,0,0,1-5.759,12.435,9.6,9.6,0,0,1-1.635.451l-5.546,33.959-13.01-12.013,7.261-30.407a9.806,9.806,0,0,1,8.59-10.759,9.547,9.547,0,0,1,10.1,6.333Z" transform="translate(-561.002 4414.851)" fill="#ffb6b6"/>
    <path id="Path_32" data-name="Path 32" d="M275.881,420.037s10.1-13.341,46.739-12.976l20.8-7.556,4.753-43.57,16.636,3.961-2.377,53.868-35.648,20.6-46.739,9.506Z" transform="translate(-561.002 4414.851)" fill="#3f3d56"/>
    <circle id="ab6171fa-7d69-4734-b81c-8dff60f9761b" cx="21.747" cy="21.747" r="21.747" transform="translate(-312.234 4763.598)" fill="#ffb6b6"/>
    <path id="Path_33" data-name="Path 33" d="M233.708,535.39a.419.419,0,0,1-.114-.015c-.4-.112-.719-.2.73-12.729l1.564-9.9L234.361,504l-2.568-2.568,4.127-4.127,3.463-9.838-5.993-8.88-6.876-36.316a28.972,28.972,0,0,1,15.911-31.478l7.958-2.325,2.9-5.31a9.52,9.52,0,0,1,8.287-4.962l14.573-.109a9.52,9.52,0,0,1,7.617,3.715l5.084,6.609,21.083,7.162-3.5,75.321h0a5.233,5.233,0,0,1,.359,7.7c-.219.221-.393.4-.5.52-.355.5.311,4.275,1.135,7.475l1.056,4.9h0a3.013,3.013,0,0,0-.548,4.4l1.346,1.591h0a7.6,7.6,0,0,1-6.507,8.535C283.5,528.628,233.809,535.39,233.708,535.39Z" transform="translate(-561.002 4414.851)" fill="#3f3d56"/>
    <path id="Path_34" data-name="Path 34" d="M264.953,391.178q-.139-.307-.278-.616c.036,0,.071.006.106.007Z" transform="translate(-561.002 4414.851)" fill="#2f2e41"/>
    <path id="Path_35" data-name="Path 35" d="M248.164,349.737a6.053,6.053,0,0,1,3.792-1.639c1.406.045,2.832,1.315,2.541,2.692A22.348,22.348,0,0,1,281.392,340.7c3.5,1.233,6.923,3.7,7.726,7.318a6.591,6.591,0,0,0,.83,2.7,3.084,3.084,0,0,0,3.282.832l.034-.01A1.028,1.028,0,0,1,294.506,353l-.989,1.844a7.925,7.925,0,0,0,3.776-.08,1.027,1.027,0,0,1,1.09,1.6,17.9,17.9,0,0,1-14.269,7.334c-3.951-.024-7.944-1.386-11.789-.477a10.241,10.241,0,0,0-6.888,14.376c-1.181-1.292-3.465-.986-4.674.281a6.41,6.41,0,0,0-1.4,4.9,22.756,22.756,0,0,0,2.336,7.639,22.836,22.836,0,0,1-13.537-40.678Z" transform="translate(-561.002 4414.851)" fill="#2f2e41"/>
    <path id="Path_36" data-name="Path 36" d="M242.18,566.581a9.771,9.771,0,0,1-2.3-13.509,9.6,9.6,0,0,1,1.092-1.3l-14.675-31.123,17.527,2.525,11.249,29.168a9.806,9.806,0,0,1-.98,13.733,9.547,9.547,0,0,1-11.91.505Z" transform="translate(-561.002 4414.851)" fill="#ffb6b6"/>
    <path id="Path_37" data-name="Path 37" d="M237.736,549.587,214.384,497.1l-.234-41.452,7.361-22.391a23.925,23.925,0,0,1,30.827-15.04l.162.058.068.158c.272.635,6.446,15.906-11.867,47.322l-3.686,21.5,12.932,49.274Z" transform="translate(-561.002 4414.851)" fill="#3f3d56"/>
    <g id="Group_1" data-name="Group 1" transform="translate(-364.296 4628.758)">
      <path id="Union_32" data-name="Union 32" d="M50.171,156.992,16.3,111.843a14.488,14.488,0,0,1-2-3.613,66.889,66.889,0,1,1,104.888.362,14.984,14.984,0,0,1-1.776,3L83.208,156.911c-3.793,5.025-10.208,7.54-16.606,7.541C60.244,164.452,53.9,161.968,50.171,156.992Z" transform="translate(336.999 1.999)" fill="url(#linear-gradient)"/>
      <path id="Subtraction_91" data-name="Subtraction 91" d="M3.506,88.325v0a66.89,66.89,0,1,1,126.766,0,65.925,65.925,0,0,0-126.764,0Z" transform="translate(337 1.999)" fill="url(#linear-gradient-2)"/>
      <path id="Intersection_9" data-name="Intersection 9" d="M34.325,70,.457,24.854Q.218,24.536,0,24.213a65.906,65.906,0,0,1,101.961-.15q-.189.274-.394.545L67.361,69.923c-3.794,5.025-10.209,7.54-16.606,7.54C44.4,77.464,38.057,74.979,34.325,70Z" transform="translate(352.846 88.988)" fill="url(#linear-gradient-3)"/>
    </g>
  </g>
</svg>
